<?xml version="1.0" encoding="UTF-8" standalone="no"?><svg xmlns="http://www.w3.org/2000/svg" xmlns:xlink="http://www.w3.org/1999/xlink" contentStyleType="text/css" height="240px" preserveAspectRatio="none" style="width:208px;height:240px;background:#FFFFFF;" version="1.1" viewBox="0 0 208 240" width="208px" zoomAndPan="magnify"><defs/><g><!--MD5=[f5d4068ef8829224db0584ada6e04a7e]
class SubComment--><g id="elem_SubComment"><rect codeLine="1" fill="#F1F1F1" height="118.4375" id="SubComment" rx="2.5" ry="2.5" style="stroke:#181818;stroke-width:0.5;" width="194" x="7" y="7"/><ellipse cx="57.25" cy="23" fill="#ADD1B2" rx="11" ry="11" style="stroke:#181818;stroke-width:1.0;"/><path d="M60.0156,18.875 Q60.1719,18.6563 60.3594,18.5469 Q60.5469,18.4375 60.7656,18.4375 Q61.1406,18.4375 61.375,18.7031 Q61.6094,18.9531 61.6094,19.5625 L61.6094,21.0156 Q61.6094,21.625 61.375,21.8906 Q61.1406,22.1563 60.7656,22.1563 Q60.4219,22.1563 60.2188,21.9531 Q60.0156,21.7656 59.9063,21.25 Q59.8594,20.8906 59.6719,20.7031 Q59.3438,20.3281 58.7344,20.1094 Q58.125,19.8906 57.5,19.8906 Q56.7344,19.8906 56.0938,20.2188 Q55.4688,20.5469 54.9688,21.2969 Q54.4844,22.0469 54.4844,23.0781 L54.4844,24.1719 Q54.4844,25.4063 55.375,26.2344 Q56.2656,27.0469 57.8594,27.0469 Q58.7969,27.0469 59.4531,26.7969 Q59.8438,26.6406 60.2656,26.2031 Q60.5313,25.9375 60.6719,25.8594 Q60.8281,25.7813 61.0313,25.7813 Q61.3594,25.7813 61.6094,26.0469 Q61.875,26.2969 61.875,26.6406 Q61.875,26.9844 61.5313,27.3906 Q61.0313,27.9688 60.2344,28.2969 Q59.1563,28.75 57.8594,28.75 Q56.3438,28.75 55.1406,28.125 Q54.1563,27.625 53.4688,26.5625 Q52.7813,25.4844 52.7813,24.2031 L52.7813,23.0469 Q52.7813,21.7188 53.3906,20.5781 Q54.0156,19.4219 55.1094,18.8125 Q56.2031,18.1875 57.4375,18.1875 Q58.1719,18.1875 58.8125,18.3594 Q59.4688,18.5156 60.0156,18.875 Z " fill="#000000"/><text fill="#000000" font-family="sans-serif" font-size="14" lengthAdjust="spacing" textLength="85" x="77.75" y="28.7285">SubComment</text><line style="stroke:#181818;stroke-width:0.5;" x1="8" x2="200" y1="39" y2="39"/><ellipse cx="18" cy="53.3047" fill="none" rx="3" ry="3" style="stroke:#038048;stroke-width:1.0;"/><text fill="#000000" font-family="sans-serif" font-size="14" lengthAdjust="spacing" textLength="117" x="27" y="57.5332">Id : int «get» «set»</text><ellipse cx="18" cy="70.9141" fill="none" rx="3" ry="3" style="stroke:#038048;stroke-width:1.0;"/><text fill="#000000" font-family="sans-serif" font-size="14" lengthAdjust="spacing" textLength="145" x="27" y="75.1426">PostId : int «get» «set»</text><ellipse cx="18" cy="88.5234" fill="none" rx="3" ry="3" style="stroke:#038048;stroke-width:1.0;"/><text fill="#000000" font-family="sans-serif" font-size="14" lengthAdjust="spacing" textLength="153" x="27" y="92.752">Text : string «get» «set»</text><ellipse cx="18" cy="106.1328" fill="none" rx="3" ry="3" style="stroke:#038048;stroke-width:1.0;"/><text fill="#000000" font-family="sans-serif" font-size="14" lengthAdjust="spacing" textLength="168" x="27" y="110.3613">Author : string «get» «set»</text><line style="stroke:#181818;stroke-width:0.5;" x1="8" x2="200" y1="117.4375" y2="117.4375"/></g><!--MD5=[20ddef7090025b04fb973268620c0974]
class DateTime--><g id="elem_DateTime"><rect fill="#F1F1F1" height="48" id="DateTime" rx="2.5" ry="2.5" style="stroke:#181818;stroke-width:0.5;" width="93" x="57.5" y="185"/><ellipse cx="72.5" cy="201" fill="#ADD1B2" rx="11" ry="11" style="stroke:#181818;stroke-width:1.0;"/><path d="M75.2656,196.875 Q75.4219,196.6563 75.6094,196.5469 Q75.7969,196.4375 76.0156,196.4375 Q76.3906,196.4375 76.625,196.7031 Q76.8594,196.9531 76.8594,197.5625 L76.8594,199.0156 Q76.8594,199.625 76.625,199.8906 Q76.3906,200.1563 76.0156,200.1563 Q75.6719,200.1563 75.4688,199.9531 Q75.2656,199.7656 75.1563,199.25 Q75.1094,198.8906 74.9219,198.7031 Q74.5938,198.3281 73.9844,198.1094 Q73.375,197.8906 72.75,197.8906 Q71.9844,197.8906 71.3438,198.2188 Q70.7188,198.5469 70.2188,199.2969 Q69.7344,200.0469 69.7344,201.0781 L69.7344,202.1719 Q69.7344,203.4063 70.625,204.2344 Q71.5156,205.0469 73.1094,205.0469 Q74.0469,205.0469 74.7031,204.7969 Q75.0938,204.6406 75.5156,204.2031 Q75.7813,203.9375 75.9219,203.8594 Q76.0781,203.7813 76.2813,203.7813 Q76.6094,203.7813 76.8594,204.0469 Q77.125,204.2969 77.125,204.6406 Q77.125,204.9844 76.7813,205.3906 Q76.2813,205.9688 75.4844,206.2969 Q74.4063,206.75 73.1094,206.75 Q71.5938,206.75 70.3906,206.125 Q69.4063,205.625 68.7188,204.5625 Q68.0313,203.4844 68.0313,202.2031 L68.0313,201.0469 Q68.0313,199.7188 68.6406,198.5781 Q69.2656,197.4219 70.3594,196.8125 Q71.4531,196.1875 72.6875,196.1875 Q73.4219,196.1875 74.0625,196.3594 Q74.7188,196.5156 75.2656,196.875 Z " fill="#000000"/><text fill="#000000" font-family="sans-serif" font-size="14" lengthAdjust="spacing" textLength="61" x="86.5" y="206.7285">DateTime</text><line style="stroke:#181818;stroke-width:0.5;" x1="58.5" x2="149.5" y1="217" y2="217"/><line style="stroke:#181818;stroke-width:0.5;" x1="58.5" x2="149.5" y1="225" y2="225"/></g><!--MD5=[3c99510cc391d06b49dfe5ea17954a31]
link SubComment to DateTime--><g id="link_SubComment_DateTime"><path codeLine="7" d="M104,125.16 C104,143.97 104,164 104,179.64 " fill="none" id="SubComment-to-DateTime" style="stroke:#181818;stroke-width:1.0;"/><polygon fill="#181818" points="104,184.77,108,175.77,104,179.77,100,175.77,104,184.77" style="stroke:#181818;stroke-width:1.0;"/><text fill="#000000" font-family="sans-serif" font-size="13" lengthAdjust="spacing" textLength="58" x="38.5688" y="174.0512">CreatedAt</text></g><!--MD5=[f9d5fa502d8ffcbad7a24c0addde7a22]
@startuml
class SubComment {
    + Id : int <<get>> <<set>>
    + PostId : int <<get>> <<set>>
    + Text : string <<get>> <<set>>
    + Author : string <<get>> <<set>>
}
SubComment - -> "CreatedAt" DateTime
@enduml

PlantUML version 1.2022.7(Mon Aug 22 19:01:30 CEST 2022)
(GPL source distribution)
Java Runtime: OpenJDK Runtime Environment
JVM: OpenJDK 64-Bit Server VM
Default Encoding: Cp1252
Language: en
Country: US
--></g></svg>