<?xml version="1.0" encoding="UTF-8" standalone="no"?><svg xmlns="http://www.w3.org/2000/svg" xmlns:xlink="http://www.w3.org/1999/xlink" contentStyleType="text/css" height="104px" preserveAspectRatio="none" style="width:236px;height:104px;background:#FFFFFF;" version="1.1" viewBox="0 0 236 104" width="236px" zoomAndPan="magnify"><defs/><g><!--MD5=[d52bb4e0af23ce21220aa3b18c0ca397]
class UserDto--><g id="elem_UserDto"><rect codeLine="1" fill="#F1F1F1" height="83.2188" id="UserDto" rx="2.5" ry="2.5" style="stroke:#181818;stroke-width:0.5;" width="215" x="7" y="7"/><ellipse cx="84.75" cy="23" fill="#ADD1B2" rx="11" ry="11" style="stroke:#181818;stroke-width:1.0;"/><path d="M87.5156,18.875 Q87.6719,18.6563 87.8594,18.5469 Q88.0469,18.4375 88.2656,18.4375 Q88.6406,18.4375 88.875,18.7031 Q89.1094,18.9531 89.1094,19.5625 L89.1094,21.0156 Q89.1094,21.625 88.875,21.8906 Q88.6406,22.1563 88.2656,22.1563 Q87.9219,22.1563 87.7188,21.9531 Q87.5156,21.7656 87.4063,21.25 Q87.3594,20.8906 87.1719,20.7031 Q86.8438,20.3281 86.2344,20.1094 Q85.625,19.8906 85,19.8906 Q84.2344,19.8906 83.5938,20.2188 Q82.9688,20.5469 82.4688,21.2969 Q81.9844,22.0469 81.9844,23.0781 L81.9844,24.1719 Q81.9844,25.4063 82.875,26.2344 Q83.7656,27.0469 85.3594,27.0469 Q86.2969,27.0469 86.9531,26.7969 Q87.3438,26.6406 87.7656,26.2031 Q88.0313,25.9375 88.1719,25.8594 Q88.3281,25.7813 88.5313,25.7813 Q88.8594,25.7813 89.1094,26.0469 Q89.375,26.2969 89.375,26.6406 Q89.375,26.9844 89.0313,27.3906 Q88.5313,27.9688 87.7344,28.2969 Q86.6563,28.75 85.3594,28.75 Q83.8438,28.75 82.6406,28.125 Q81.6563,27.625 80.9688,26.5625 Q80.2813,25.4844 80.2813,24.2031 L80.2813,23.0469 Q80.2813,21.7188 80.8906,20.5781 Q81.5156,19.4219 82.6094,18.8125 Q83.7031,18.1875 84.9375,18.1875 Q85.6719,18.1875 86.3125,18.3594 Q86.9688,18.5156 87.5156,18.875 Z " fill="#000000"/><text fill="#000000" font-family="sans-serif" font-size="14" lengthAdjust="spacing" textLength="51" x="105.25" y="28.7285">UserDto</text><line style="stroke:#181818;stroke-width:0.5;" x1="8" x2="221" y1="39" y2="39"/><ellipse cx="18" cy="53.3047" fill="none" rx="3" ry="3" style="stroke:#038048;stroke-width:1.0;"/><text fill="#000000" font-family="sans-serif" font-size="14" lengthAdjust="spacing" textLength="189" x="27" y="57.5332">Username : string «get» «init»</text><ellipse cx="18" cy="70.9141" fill="none" rx="3" ry="3" style="stroke:#038048;stroke-width:1.0;"/><text fill="#000000" font-family="sans-serif" font-size="14" lengthAdjust="spacing" textLength="186" x="27" y="75.1426">Password : string «get» «init»</text><line style="stroke:#181818;stroke-width:0.5;" x1="8" x2="221" y1="82.2188" y2="82.2188"/></g><!--MD5=[e0b02d0e2d46ebd324d7ee9c0799dc97]
@startuml
class UserDto {
    + Username : string <<get>> <<init>>
    + Password : string <<get>> <<init>>
}
@enduml

PlantUML version 1.2022.7(Mon Aug 22 19:01:30 CEST 2022)
(GPL source distribution)
Java Runtime: OpenJDK Runtime Environment
JVM: OpenJDK 64-Bit Server VM
Default Encoding: Cp1252
Language: en
Country: US
--></g></svg>