<?xml version="1.0" encoding="UTF-8" standalone="no"?><svg xmlns="http://www.w3.org/2000/svg" xmlns:xlink="http://www.w3.org/1999/xlink" contentStyleType="text/css" height="275px" preserveAspectRatio="none" style="width:290px;height:275px;background:#FFFFFF;" version="1.1" viewBox="0 0 290 275" width="290px" zoomAndPan="magnify"><defs/><g><!--MD5=[43046b2811d103cba6940a1623664b28]
class PostService--><g id="elem_PostService"><rect codeLine="1" fill="#F1F1F1" height="153.6563" id="PostService" rx="2.5" ry="2.5" style="stroke:#181818;stroke-width:0.5;" width="276" x="7" y="115"/><ellipse cx="103.25" cy="131" fill="#ADD1B2" rx="11" ry="11" style="stroke:#181818;stroke-width:1.0;"/><path d="M106.0156,126.875 Q106.1719,126.6563 106.3594,126.5469 Q106.5469,126.4375 106.7656,126.4375 Q107.1406,126.4375 107.375,126.7031 Q107.6094,126.9531 107.6094,127.5625 L107.6094,129.0156 Q107.6094,129.625 107.375,129.8906 Q107.1406,130.1563 106.7656,130.1563 Q106.4219,130.1563 106.2188,129.9531 Q106.0156,129.7656 105.9063,129.25 Q105.8594,128.8906 105.6719,128.7031 Q105.3438,128.3281 104.7344,128.1094 Q104.125,127.8906 103.5,127.8906 Q102.7344,127.8906 102.0938,128.2188 Q101.4688,128.5469 100.9688,129.2969 Q100.4844,130.0469 100.4844,131.0781 L100.4844,132.1719 Q100.4844,133.4063 101.375,134.2344 Q102.2656,135.0469 103.8594,135.0469 Q104.7969,135.0469 105.4531,134.7969 Q105.8438,134.6406 106.2656,134.2031 Q106.5313,133.9375 106.6719,133.8594 Q106.8281,133.7813 107.0313,133.7813 Q107.3594,133.7813 107.6094,134.0469 Q107.875,134.2969 107.875,134.6406 Q107.875,134.9844 107.5313,135.3906 Q107.0313,135.9688 106.2344,136.2969 Q105.1563,136.75 103.8594,136.75 Q102.3438,136.75 101.1406,136.125 Q100.1563,135.625 99.4688,134.5625 Q98.7813,133.4844 98.7813,132.2031 L98.7813,131.0469 Q98.7813,129.7188 99.3906,128.5781 Q100.0156,127.4219 101.1094,126.8125 Q102.2031,126.1875 103.4375,126.1875 Q104.1719,126.1875 104.8125,126.3594 Q105.4688,126.5156 106.0156,126.875 Z " fill="#000000"/><text fill="#000000" font-family="sans-serif" font-size="14" lengthAdjust="spacing" textLength="75" x="123.75" y="136.7285">PostService</text><line style="stroke:#181818;stroke-width:0.5;" x1="8" x2="282" y1="147" y2="147"/><line style="stroke:#181818;stroke-width:0.5;" x1="8" x2="282" y1="155" y2="155"/><ellipse cx="18" cy="169.3047" fill="#84BE84" rx="3" ry="3" style="stroke:#038048;stroke-width:1.0;"/><text fill="#000000" font-family="sans-serif" font-size="14" lengthAdjust="spacing" textLength="199" x="27" y="173.5332">PostService(postDao:IPostDao)</text><ellipse cx="18" cy="186.9141" fill="#84BE84" rx="3" ry="3" style="stroke:#038048;stroke-width:1.0;"/><text fill="#000000" font-family="sans-serif" font-size="14" lengthAdjust="spacing" textLength="178" x="27" y="191.1426">GetPost(id:int) : Task&lt;Post&gt;</text><ellipse cx="18" cy="204.5234" fill="#84BE84" rx="3" ry="3" style="stroke:#038048;stroke-width:1.0;"/><text fill="#000000" font-family="sans-serif" font-size="14" lengthAdjust="spacing" textLength="242" x="27" y="208.752">«async» UpdatePost(post:Post) : Task</text><ellipse cx="18" cy="222.1328" fill="#84BE84" rx="3" ry="3" style="stroke:#038048;stroke-width:1.0;"/><text fill="#000000" font-family="sans-serif" font-size="14" lengthAdjust="spacing" textLength="152" x="27" y="226.3613">DeletePost(id:int) : Task</text><ellipse cx="18" cy="239.7422" fill="#84BE84" rx="3" ry="3" style="stroke:#038048;stroke-width:1.0;"/><text fill="#000000" font-family="sans-serif" font-size="14" lengthAdjust="spacing" textLength="250" x="27" y="243.9707">GetPosts() : Task&lt;IEnumerable&lt;Post&gt;&gt;</text><ellipse cx="18" cy="257.3516" fill="#84BE84" rx="3" ry="3" style="stroke:#038048;stroke-width:1.0;"/><text fill="#000000" font-family="sans-serif" font-size="14" lengthAdjust="spacing" textLength="205" x="27" y="261.5801">CreatePost(post:PostDto) : Task</text></g><!--MD5=[6fd3d691bc4e27d55cad78cf914e777d]
class IPostService--><g id="elem_IPostService"><rect fill="#F1F1F1" height="48" id="IPostService" rx="2.5" ry="2.5" style="stroke:#181818;stroke-width:0.5;" width="110" x="90" y="7"/><ellipse cx="105" cy="23" fill="#ADD1B2" rx="11" ry="11" style="stroke:#181818;stroke-width:1.0;"/><path d="M107.7656,18.875 Q107.9219,18.6563 108.1094,18.5469 Q108.2969,18.4375 108.5156,18.4375 Q108.8906,18.4375 109.125,18.7031 Q109.3594,18.9531 109.3594,19.5625 L109.3594,21.0156 Q109.3594,21.625 109.125,21.8906 Q108.8906,22.1563 108.5156,22.1563 Q108.1719,22.1563 107.9688,21.9531 Q107.7656,21.7656 107.6563,21.25 Q107.6094,20.8906 107.4219,20.7031 Q107.0938,20.3281 106.4844,20.1094 Q105.875,19.8906 105.25,19.8906 Q104.4844,19.8906 103.8438,20.2188 Q103.2188,20.5469 102.7188,21.2969 Q102.2344,22.0469 102.2344,23.0781 L102.2344,24.1719 Q102.2344,25.4063 103.125,26.2344 Q104.0156,27.0469 105.6094,27.0469 Q106.5469,27.0469 107.2031,26.7969 Q107.5938,26.6406 108.0156,26.2031 Q108.2813,25.9375 108.4219,25.8594 Q108.5781,25.7813 108.7813,25.7813 Q109.1094,25.7813 109.3594,26.0469 Q109.625,26.2969 109.625,26.6406 Q109.625,26.9844 109.2813,27.3906 Q108.7813,27.9688 107.9844,28.2969 Q106.9063,28.75 105.6094,28.75 Q104.0938,28.75 102.8906,28.125 Q101.9063,27.625 101.2188,26.5625 Q100.5313,25.4844 100.5313,24.2031 L100.5313,23.0469 Q100.5313,21.7188 101.1406,20.5781 Q101.7656,19.4219 102.8594,18.8125 Q103.9531,18.1875 105.1875,18.1875 Q105.9219,18.1875 106.5625,18.3594 Q107.2188,18.5156 107.7656,18.875 Z " fill="#000000"/><text fill="#000000" font-family="sans-serif" font-size="14" lengthAdjust="spacing" textLength="78" x="119" y="28.7285">IPostService</text><line style="stroke:#181818;stroke-width:0.5;" x1="91" x2="199" y1="39" y2="39"/><line style="stroke:#181818;stroke-width:0.5;" x1="91" x2="199" y1="47" y2="47"/></g><!--MD5=[5c541c8eb3e0da24eb65438701caf01b]
reverse link IPostService to PostService--><g id="link_IPostService_PostService"><path codeLine="9" d="M145,75.21 C145,87.43 145,101.11 145,114.67 " fill="none" id="IPostService-backto-PostService" style="stroke:#181818;stroke-width:1.0;"/><polygon fill="none" points="138,75.12,145,55.12,152,75.12,138,75.12" style="stroke:#181818;stroke-width:1.0;"/></g><!--MD5=[48ca5d99246e05f677fa2ebef1e4b019]
@startuml
class PostService {
    + PostService(postDao:IPostDao)
    + GetPost(id:int) : Task<Post>
    + <<async>> UpdatePost(post:Post) : Task
    + DeletePost(id:int) : Task
    + GetPosts() : Task<IEnumerable<Post>>
    + CreatePost(post:PostDto) : Task
}
IPostService <|- - PostService
@enduml

PlantUML version 1.2022.7(Mon Aug 22 19:01:30 CEST 2022)
(GPL source distribution)
Java Runtime: OpenJDK Runtime Environment
JVM: OpenJDK 64-Bit Server VM
Default Encoding: Cp1252
Language: en
Country: US
--></g></svg>