<?xml version="1.0" encoding="UTF-8" standalone="no"?><svg xmlns="http://www.w3.org/2000/svg" xmlns:xlink="http://www.w3.org/1999/xlink" contentStyleType="text/css" height="222px" preserveAspectRatio="none" style="width:399px;height:222px;background:#FFFFFF;" version="1.1" viewBox="0 0 399 222" width="399px" zoomAndPan="magnify"><defs/><g><!--MD5=[b4f586f7c628b5a371c8c0ac9af5f898]
class AuthService--><g id="elem_AuthService"><rect codeLine="1" fill="#F1F1F1" height="100.8281" id="AuthService" rx="2.5" ry="2.5" style="stroke:#181818;stroke-width:0.5;" width="385" x="7" y="115"/><ellipse cx="157.25" cy="131" fill="#ADD1B2" rx="11" ry="11" style="stroke:#181818;stroke-width:1.0;"/><path d="M160.0156,126.875 Q160.1719,126.6563 160.3594,126.5469 Q160.5469,126.4375 160.7656,126.4375 Q161.1406,126.4375 161.375,126.7031 Q161.6094,126.9531 161.6094,127.5625 L161.6094,129.0156 Q161.6094,129.625 161.375,129.8906 Q161.1406,130.1563 160.7656,130.1563 Q160.4219,130.1563 160.2188,129.9531 Q160.0156,129.7656 159.9063,129.25 Q159.8594,128.8906 159.6719,128.7031 Q159.3438,128.3281 158.7344,128.1094 Q158.125,127.8906 157.5,127.8906 Q156.7344,127.8906 156.0938,128.2188 Q155.4688,128.5469 154.9688,129.2969 Q154.4844,130.0469 154.4844,131.0781 L154.4844,132.1719 Q154.4844,133.4063 155.375,134.2344 Q156.2656,135.0469 157.8594,135.0469 Q158.7969,135.0469 159.4531,134.7969 Q159.8438,134.6406 160.2656,134.2031 Q160.5313,133.9375 160.6719,133.8594 Q160.8281,133.7813 161.0313,133.7813 Q161.3594,133.7813 161.6094,134.0469 Q161.875,134.2969 161.875,134.6406 Q161.875,134.9844 161.5313,135.3906 Q161.0313,135.9688 160.2344,136.2969 Q159.1563,136.75 157.8594,136.75 Q156.3438,136.75 155.1406,136.125 Q154.1563,135.625 153.4688,134.5625 Q152.7813,133.4844 152.7813,132.2031 L152.7813,131.0469 Q152.7813,129.7188 153.3906,128.5781 Q154.0156,127.4219 155.1094,126.8125 Q156.2031,126.1875 157.4375,126.1875 Q158.1719,126.1875 158.8125,126.3594 Q159.4688,126.5156 160.0156,126.875 Z " fill="#000000"/><text fill="#000000" font-family="sans-serif" font-size="14" lengthAdjust="spacing" textLength="76" x="177.75" y="136.7285">AuthService</text><line style="stroke:#181818;stroke-width:0.5;" x1="8" x2="391" y1="147" y2="147"/><line style="stroke:#181818;stroke-width:0.5;" x1="8" x2="391" y1="155" y2="155"/><ellipse cx="18" cy="169.3047" fill="#84BE84" rx="3" ry="3" style="stroke:#038048;stroke-width:1.0;"/><text fill="#000000" font-family="sans-serif" font-size="14" lengthAdjust="spacing" textLength="202" x="27" y="173.5332">AuthService(userDao:IUserDao)</text><ellipse cx="18" cy="186.9141" fill="#84BE84" rx="3" ry="3" style="stroke:#038048;stroke-width:1.0;"/><text fill="#000000" font-family="sans-serif" font-size="14" lengthAdjust="spacing" textLength="359" x="27" y="191.1426">GetUser(username:string, password:string) : Task&lt;User&gt;</text><ellipse cx="18" cy="204.5234" fill="#84BE84" rx="3" ry="3" style="stroke:#038048;stroke-width:1.0;"/><text fill="#000000" font-family="sans-serif" font-size="14" lengthAdjust="spacing" textLength="253" x="27" y="208.752">«async» RegisterUser(user:User) : Task</text></g><!--MD5=[1a70795ac229e48b124a99137acc095a]
class IAuthService--><g id="elem_IAuthService"><rect fill="#F1F1F1" height="48" id="IAuthService" rx="2.5" ry="2.5" style="stroke:#181818;stroke-width:0.5;" width="111" x="144" y="7"/><ellipse cx="159" cy="23" fill="#ADD1B2" rx="11" ry="11" style="stroke:#181818;stroke-width:1.0;"/><path d="M161.7656,18.875 Q161.9219,18.6563 162.1094,18.5469 Q162.2969,18.4375 162.5156,18.4375 Q162.8906,18.4375 163.125,18.7031 Q163.3594,18.9531 163.3594,19.5625 L163.3594,21.0156 Q163.3594,21.625 163.125,21.8906 Q162.8906,22.1563 162.5156,22.1563 Q162.1719,22.1563 161.9688,21.9531 Q161.7656,21.7656 161.6563,21.25 Q161.6094,20.8906 161.4219,20.7031 Q161.0938,20.3281 160.4844,20.1094 Q159.875,19.8906 159.25,19.8906 Q158.4844,19.8906 157.8438,20.2188 Q157.2188,20.5469 156.7188,21.2969 Q156.2344,22.0469 156.2344,23.0781 L156.2344,24.1719 Q156.2344,25.4063 157.125,26.2344 Q158.0156,27.0469 159.6094,27.0469 Q160.5469,27.0469 161.2031,26.7969 Q161.5938,26.6406 162.0156,26.2031 Q162.2813,25.9375 162.4219,25.8594 Q162.5781,25.7813 162.7813,25.7813 Q163.1094,25.7813 163.3594,26.0469 Q163.625,26.2969 163.625,26.6406 Q163.625,26.9844 163.2813,27.3906 Q162.7813,27.9688 161.9844,28.2969 Q160.9063,28.75 159.6094,28.75 Q158.0938,28.75 156.8906,28.125 Q155.9063,27.625 155.2188,26.5625 Q154.5313,25.4844 154.5313,24.2031 L154.5313,23.0469 Q154.5313,21.7188 155.1406,20.5781 Q155.7656,19.4219 156.8594,18.8125 Q157.9531,18.1875 159.1875,18.1875 Q159.9219,18.1875 160.5625,18.3594 Q161.2188,18.5156 161.7656,18.875 Z " fill="#000000"/><text fill="#000000" font-family="sans-serif" font-size="14" lengthAdjust="spacing" textLength="79" x="173" y="28.7285">IAuthService</text><line style="stroke:#181818;stroke-width:0.5;" x1="145" x2="254" y1="39" y2="39"/><line style="stroke:#181818;stroke-width:0.5;" x1="145" x2="254" y1="47" y2="47"/></g><!--MD5=[d334e2be6e8837c9aa582d04c03a336d]
reverse link IAuthService to AuthService--><g id="link_IAuthService_AuthService"><path codeLine="6" d="M199.5,75.34 C199.5,87.95 199.5,101.82 199.5,114.8 " fill="none" id="IAuthService-backto-AuthService" style="stroke:#181818;stroke-width:1.0;"/><polygon fill="none" points="192.5,75.08,199.5,55.08,206.5,75.08,192.5,75.08" style="stroke:#181818;stroke-width:1.0;"/></g><!--MD5=[f26f4ea306e15cd329cf5e8691e91fb1]
@startuml
class AuthService {
    + AuthService(userDao:IUserDao)
    + GetUser(username:string, password:string) : Task<User>
    + <<async>> RegisterUser(user:User) : Task
}
IAuthService <|- - AuthService
@enduml

PlantUML version 1.2022.7(Mon Aug 22 19:01:30 CEST 2022)
(GPL source distribution)
Java Runtime: OpenJDK Runtime Environment
JVM: OpenJDK 64-Bit Server VM
Default Encoding: Cp1252
Language: en
Country: US
--></g></svg>