<?xml version="1.0" encoding="UTF-8" standalone="no"?><svg xmlns="http://www.w3.org/2000/svg" xmlns:xlink="http://www.w3.org/1999/xlink" contentStyleType="text/css" height="205px" preserveAspectRatio="none" style="width:235px;height:205px;background:#FFFFFF;" version="1.1" viewBox="0 0 235 205" width="235px" zoomAndPan="magnify"><defs/><g><!--MD5=[024887d9c32256523add01fc7f223c4c]
class PostNotSaved--><g id="elem_PostNotSaved"><rect codeLine="1" fill="#F1F1F1" height="83.2188" id="PostNotSaved" rx="2.5" ry="2.5" style="stroke:#181818;stroke-width:0.5;" width="221" x="7" y="115"/><ellipse cx="68.75" cy="131" fill="#ADD1B2" rx="11" ry="11" style="stroke:#181818;stroke-width:1.0;"/><path d="M71.5156,126.875 Q71.6719,126.6563 71.8594,126.5469 Q72.0469,126.4375 72.2656,126.4375 Q72.6406,126.4375 72.875,126.7031 Q73.1094,126.9531 73.1094,127.5625 L73.1094,129.0156 Q73.1094,129.625 72.875,129.8906 Q72.6406,130.1563 72.2656,130.1563 Q71.9219,130.1563 71.7188,129.9531 Q71.5156,129.7656 71.4063,129.25 Q71.3594,128.8906 71.1719,128.7031 Q70.8438,128.3281 70.2344,128.1094 Q69.625,127.8906 69,127.8906 Q68.2344,127.8906 67.5938,128.2188 Q66.9688,128.5469 66.4688,129.2969 Q65.9844,130.0469 65.9844,131.0781 L65.9844,132.1719 Q65.9844,133.4063 66.875,134.2344 Q67.7656,135.0469 69.3594,135.0469 Q70.2969,135.0469 70.9531,134.7969 Q71.3438,134.6406 71.7656,134.2031 Q72.0313,133.9375 72.1719,133.8594 Q72.3281,133.7813 72.5313,133.7813 Q72.8594,133.7813 73.1094,134.0469 Q73.375,134.2969 73.375,134.6406 Q73.375,134.9844 73.0313,135.3906 Q72.5313,135.9688 71.7344,136.2969 Q70.6563,136.75 69.3594,136.75 Q67.8438,136.75 66.6406,136.125 Q65.6563,135.625 64.9688,134.5625 Q64.2813,133.4844 64.2813,132.2031 L64.2813,131.0469 Q64.2813,129.7188 64.8906,128.5781 Q65.5156,127.4219 66.6094,126.8125 Q67.7031,126.1875 68.9375,126.1875 Q69.6719,126.1875 70.3125,126.3594 Q70.9688,126.5156 71.5156,126.875 Z " fill="#000000"/><text fill="#000000" font-family="sans-serif" font-size="14" lengthAdjust="spacing" textLength="89" x="89.25" y="136.7285">PostNotSaved</text><line style="stroke:#181818;stroke-width:0.5;" x1="8" x2="227" y1="147" y2="147"/><line style="stroke:#181818;stroke-width:0.5;" x1="8" x2="227" y1="155" y2="155"/><ellipse cx="18" cy="169.3047" fill="#84BE84" rx="3" ry="3" style="stroke:#038048;stroke-width:1.0;"/><text fill="#000000" font-family="sans-serif" font-size="14" lengthAdjust="spacing" textLength="99" x="27" y="173.5332">PostNotSaved()</text><ellipse cx="18" cy="186.9141" fill="#84BE84" rx="3" ry="3" style="stroke:#038048;stroke-width:1.0;"/><text fill="#000000" font-family="sans-serif" font-size="14" lengthAdjust="spacing" textLength="195" x="27" y="191.1426">PostNotSaved(message:string)</text></g><!--MD5=[8db60afef7a3447bbe27c5ed187fdac2]
class Exception--><g id="elem_Exception"><rect fill="#F1F1F1" height="48" id="Exception" rx="2.5" ry="2.5" style="stroke:#181818;stroke-width:0.5;" width="93" x="71" y="7"/><ellipse cx="86" cy="23" fill="#ADD1B2" rx="11" ry="11" style="stroke:#181818;stroke-width:1.0;"/><path d="M88.7656,18.875 Q88.9219,18.6563 89.1094,18.5469 Q89.2969,18.4375 89.5156,18.4375 Q89.8906,18.4375 90.125,18.7031 Q90.3594,18.9531 90.3594,19.5625 L90.3594,21.0156 Q90.3594,21.625 90.125,21.8906 Q89.8906,22.1563 89.5156,22.1563 Q89.1719,22.1563 88.9688,21.9531 Q88.7656,21.7656 88.6563,21.25 Q88.6094,20.8906 88.4219,20.7031 Q88.0938,20.3281 87.4844,20.1094 Q86.875,19.8906 86.25,19.8906 Q85.4844,19.8906 84.8438,20.2188 Q84.2188,20.5469 83.7188,21.2969 Q83.2344,22.0469 83.2344,23.0781 L83.2344,24.1719 Q83.2344,25.4063 84.125,26.2344 Q85.0156,27.0469 86.6094,27.0469 Q87.5469,27.0469 88.2031,26.7969 Q88.5938,26.6406 89.0156,26.2031 Q89.2813,25.9375 89.4219,25.8594 Q89.5781,25.7813 89.7813,25.7813 Q90.1094,25.7813 90.3594,26.0469 Q90.625,26.2969 90.625,26.6406 Q90.625,26.9844 90.2813,27.3906 Q89.7813,27.9688 88.9844,28.2969 Q87.9063,28.75 86.6094,28.75 Q85.0938,28.75 83.8906,28.125 Q82.9063,27.625 82.2188,26.5625 Q81.5313,25.4844 81.5313,24.2031 L81.5313,23.0469 Q81.5313,21.7188 82.1406,20.5781 Q82.7656,19.4219 83.8594,18.8125 Q84.9531,18.1875 86.1875,18.1875 Q86.9219,18.1875 87.5625,18.3594 Q88.2188,18.5156 88.7656,18.875 Z " fill="#000000"/><text fill="#000000" font-family="sans-serif" font-size="14" lengthAdjust="spacing" textLength="61" x="100" y="28.7285">Exception</text><line style="stroke:#181818;stroke-width:0.5;" x1="72" x2="163" y1="39" y2="39"/><line style="stroke:#181818;stroke-width:0.5;" x1="72" x2="163" y1="47" y2="47"/></g><!--MD5=[0edd33125ba143d39d12bd84675e7895]
reverse link Exception to PostNotSaved--><g id="link_Exception_PostNotSaved"><path codeLine="5" d="M117.5,75.31 C117.5,88.16 117.5,102.19 117.5,114.87 " fill="none" id="Exception-backto-PostNotSaved" style="stroke:#181818;stroke-width:1.0;"/><polygon fill="none" points="110.5,75.23,117.5,55.23,124.5,75.23,110.5,75.23" style="stroke:#181818;stroke-width:1.0;"/></g><!--MD5=[094c943ea90f44bbac4809c552795bdb]
@startuml
class PostNotSaved {
    + PostNotSaved()
    + PostNotSaved(message:string)
}
Exception <|- - PostNotSaved
@enduml

PlantUML version 1.2022.7(Mon Aug 22 19:01:30 CEST 2022)
(GPL source distribution)
Java Runtime: OpenJDK Runtime Environment
JVM: OpenJDK 64-Bit Server VM
Default Encoding: Cp1252
Language: en
Country: US
--></g></svg>