<?xml version="1.0" encoding="UTF-8" standalone="no"?><svg xmlns="http://www.w3.org/2000/svg" xmlns:xlink="http://www.w3.org/1999/xlink" contentStyleType="text/css" height="293px" preserveAspectRatio="none" style="width:803px;height:293px;background:#FFFFFF;" version="1.1" viewBox="0 0 803 293" width="803px" zoomAndPan="magnify"><defs/><g><!--MD5=[ca14a8240bf368b01aed7acb2e601d24]
class JwtAuthService--><g id="elem_JwtAuthService"><rect codeLine="1" fill="#F1F1F1" height="171.2656" id="JwtAuthService" rx="2.5" ry="2.5" style="stroke:#181818;stroke-width:0.5;" width="418" x="7" y="115"/><ellipse cx="164.25" cy="131" fill="#ADD1B2" rx="11" ry="11" style="stroke:#181818;stroke-width:1.0;"/><path d="M167.0156,126.875 Q167.1719,126.6563 167.3594,126.5469 Q167.5469,126.4375 167.7656,126.4375 Q168.1406,126.4375 168.375,126.7031 Q168.6094,126.9531 168.6094,127.5625 L168.6094,129.0156 Q168.6094,129.625 168.375,129.8906 Q168.1406,130.1563 167.7656,130.1563 Q167.4219,130.1563 167.2188,129.9531 Q167.0156,129.7656 166.9063,129.25 Q166.8594,128.8906 166.6719,128.7031 Q166.3438,128.3281 165.7344,128.1094 Q165.125,127.8906 164.5,127.8906 Q163.7344,127.8906 163.0938,128.2188 Q162.4688,128.5469 161.9688,129.2969 Q161.4844,130.0469 161.4844,131.0781 L161.4844,132.1719 Q161.4844,133.4063 162.375,134.2344 Q163.2656,135.0469 164.8594,135.0469 Q165.7969,135.0469 166.4531,134.7969 Q166.8438,134.6406 167.2656,134.2031 Q167.5313,133.9375 167.6719,133.8594 Q167.8281,133.7813 168.0313,133.7813 Q168.3594,133.7813 168.6094,134.0469 Q168.875,134.2969 168.875,134.6406 Q168.875,134.9844 168.5313,135.3906 Q168.0313,135.9688 167.2344,136.2969 Q166.1563,136.75 164.8594,136.75 Q163.3438,136.75 162.1406,136.125 Q161.1563,135.625 160.4688,134.5625 Q159.7813,133.4844 159.7813,132.2031 L159.7813,131.0469 Q159.7813,129.7188 160.3906,128.5781 Q161.0156,127.4219 162.1094,126.8125 Q163.2031,126.1875 164.4375,126.1875 Q165.1719,126.1875 165.8125,126.3594 Q166.4688,126.5156 167.0156,126.875 Z " fill="#000000"/><text fill="#000000" font-family="sans-serif" font-size="14" lengthAdjust="spacing" textLength="95" x="184.75" y="136.7285">JwtAuthService</text><line style="stroke:#181818;stroke-width:0.5;" x1="8" x2="424" y1="147" y2="147"/><ellipse cx="18" cy="161.3047" fill="none" rx="3" ry="3" style="stroke:#038048;stroke-width:1.0;"/><text fill="#000000" font-family="sans-serif" font-size="14" lengthAdjust="spacing" text-decoration="underline" textLength="140" x="27" y="165.5332">Jwt : string? «get» = ""</text><ellipse cx="18" cy="178.9141" fill="none" rx="3" ry="3" style="stroke:#038048;stroke-width:1.0;"/><text fill="#000000" font-family="sans-serif" font-size="14" lengthAdjust="spacing" text-decoration="underline" textLength="177" x="27" y="183.1426">Username : string «get» = ""</text><line style="stroke:#181818;stroke-width:0.5;" x1="8" x2="424" y1="190.2188" y2="190.2188"/><ellipse cx="18" cy="204.5234" fill="#84BE84" rx="3" ry="3" style="stroke:#038048;stroke-width:1.0;"/><text fill="#000000" font-family="sans-serif" font-size="14" lengthAdjust="spacing" textLength="230" x="27" y="208.752">JwtAuthService(httpClient:HttpClient)</text><ellipse cx="18" cy="222.1328" fill="#84BE84" rx="3" ry="3" style="stroke:#038048;stroke-width:1.0;"/><text fill="#000000" font-family="sans-serif" font-size="14" lengthAdjust="spacing" textLength="392" x="27" y="226.3613">«async» LoginAsync(username:string, password:string) : Task</text><ellipse cx="18" cy="239.7422" fill="#84BE84" rx="3" ry="3" style="stroke:#038048;stroke-width:1.0;"/><text fill="#000000" font-family="sans-serif" font-size="14" lengthAdjust="spacing" textLength="135" x="27" y="243.9707">LogoutAsync() : Task</text><ellipse cx="18" cy="257.3516" fill="#84BE84" rx="3" ry="3" style="stroke:#038048;stroke-width:1.0;"/><text fill="#000000" font-family="sans-serif" font-size="14" lengthAdjust="spacing" textLength="262" x="27" y="261.5801">«async» RegisterAsync(user:User) : Task</text><ellipse cx="18" cy="274.9609" fill="#84BE84" rx="3" ry="3" style="stroke:#038048;stroke-width:1.0;"/><text fill="#000000" font-family="sans-serif" font-size="14" lengthAdjust="spacing" textLength="255" x="27" y="279.1895">GetAuthAsync() : Task&lt;ClaimsPrincipal&gt;</text></g><!--MD5=[a11544de820a927b3dbade298cf8c341]
class Action`1--><g id="elem_Action`1"><rect codeLine="10" fill="#F1F1F1" height="48" id="Action`1" rx="2.5" ry="2.5" style="stroke:#181818;stroke-width:0.5;" width="95" x="460.5" y="176.5"/><ellipse cx="475.5" cy="192.5" fill="#ADD1B2" rx="11" ry="11" style="stroke:#181818;stroke-width:1.0;"/><path d="M478.2656,188.375 Q478.4219,188.1563 478.6094,188.0469 Q478.7969,187.9375 479.0156,187.9375 Q479.3906,187.9375 479.625,188.2031 Q479.8594,188.4531 479.8594,189.0625 L479.8594,190.5156 Q479.8594,191.125 479.625,191.3906 Q479.3906,191.6563 479.0156,191.6563 Q478.6719,191.6563 478.4688,191.4531 Q478.2656,191.2656 478.1563,190.75 Q478.1094,190.3906 477.9219,190.2031 Q477.5938,189.8281 476.9844,189.6094 Q476.375,189.3906 475.75,189.3906 Q474.9844,189.3906 474.3438,189.7188 Q473.7188,190.0469 473.2188,190.7969 Q472.7344,191.5469 472.7344,192.5781 L472.7344,193.6719 Q472.7344,194.9063 473.625,195.7344 Q474.5156,196.5469 476.1094,196.5469 Q477.0469,196.5469 477.7031,196.2969 Q478.0938,196.1406 478.5156,195.7031 Q478.7813,195.4375 478.9219,195.3594 Q479.0781,195.2813 479.2813,195.2813 Q479.6094,195.2813 479.8594,195.5469 Q480.125,195.7969 480.125,196.1406 Q480.125,196.4844 479.7813,196.8906 Q479.2813,197.4688 478.4844,197.7969 Q477.4063,198.25 476.1094,198.25 Q474.5938,198.25 473.3906,197.625 Q472.4063,197.125 471.7188,196.0625 Q471.0313,194.9844 471.0313,193.7031 L471.0313,192.5469 Q471.0313,191.2188 471.6406,190.0781 Q472.2656,188.9219 473.3594,188.3125 Q474.4531,187.6875 475.6875,187.6875 Q476.4219,187.6875 477.0625,187.8594 Q477.7188,188.0156 478.2656,188.375 Z " fill="#000000"/><text fill="#000000" font-family="sans-serif" font-size="14" lengthAdjust="spacing" textLength="52" x="489.5" y="198.2285">Action`1</text><rect fill="#FFFFFF" height="17.0938" style="stroke:#181818;stroke-width:1.0;stroke-dasharray:2.0,2.0;" width="9" x="549.5" y="173.5"/><text fill="#000000" font-family="sans-serif" font-size="12" font-style="italic" lengthAdjust="spacing" textLength="7" x="550.5" y="186.957">T</text><line style="stroke:#181818;stroke-width:0.5;" x1="461.5" x2="554.5" y1="208.5" y2="208.5"/><line style="stroke:#181818;stroke-width:0.5;" x1="461.5" x2="554.5" y1="216.5" y2="216.5"/></g><!--MD5=[1a70795ac229e48b124a99137acc095a]
class IAuthService--><g id="elem_IAuthService"><rect fill="#F1F1F1" height="48" id="IAuthService" rx="2.5" ry="2.5" style="stroke:#181818;stroke-width:0.5;" width="111" x="160.5" y="7"/><ellipse cx="175.5" cy="23" fill="#ADD1B2" rx="11" ry="11" style="stroke:#181818;stroke-width:1.0;"/><path d="M178.2656,18.875 Q178.4219,18.6563 178.6094,18.5469 Q178.7969,18.4375 179.0156,18.4375 Q179.3906,18.4375 179.625,18.7031 Q179.8594,18.9531 179.8594,19.5625 L179.8594,21.0156 Q179.8594,21.625 179.625,21.8906 Q179.3906,22.1563 179.0156,22.1563 Q178.6719,22.1563 178.4688,21.9531 Q178.2656,21.7656 178.1563,21.25 Q178.1094,20.8906 177.9219,20.7031 Q177.5938,20.3281 176.9844,20.1094 Q176.375,19.8906 175.75,19.8906 Q174.9844,19.8906 174.3438,20.2188 Q173.7188,20.5469 173.2188,21.2969 Q172.7344,22.0469 172.7344,23.0781 L172.7344,24.1719 Q172.7344,25.4063 173.625,26.2344 Q174.5156,27.0469 176.1094,27.0469 Q177.0469,27.0469 177.7031,26.7969 Q178.0938,26.6406 178.5156,26.2031 Q178.7813,25.9375 178.9219,25.8594 Q179.0781,25.7813 179.2813,25.7813 Q179.6094,25.7813 179.8594,26.0469 Q180.125,26.2969 180.125,26.6406 Q180.125,26.9844 179.7813,27.3906 Q179.2813,27.9688 178.4844,28.2969 Q177.4063,28.75 176.1094,28.75 Q174.5938,28.75 173.3906,28.125 Q172.4063,27.625 171.7188,26.5625 Q171.0313,25.4844 171.0313,24.2031 L171.0313,23.0469 Q171.0313,21.7188 171.6406,20.5781 Q172.2656,19.4219 173.3594,18.8125 Q174.4531,18.1875 175.6875,18.1875 Q176.4219,18.1875 177.0625,18.3594 Q177.7188,18.5156 178.2656,18.875 Z " fill="#000000"/><text fill="#000000" font-family="sans-serif" font-size="14" lengthAdjust="spacing" textLength="79" x="189.5" y="28.7285">IAuthService</text><line style="stroke:#181818;stroke-width:0.5;" x1="161.5" x2="270.5" y1="39" y2="39"/><line style="stroke:#181818;stroke-width:0.5;" x1="161.5" x2="270.5" y1="47" y2="47"/></g><!--MD5=[7a99a6a381d2319cc2b737d719cdcbab]
reverse link IAuthService to JwtAuthService--><g id="link_IAuthService_JwtAuthService"><path codeLine="12" d="M216,75.7 C216,87.74 216,101.24 216,114.76 " fill="none" id="IAuthService-backto-JwtAuthService" style="stroke:#181818;stroke-width:1.0;"/><polygon fill="none" points="209,75.29,216,55.29,223,75.29,209,75.29" style="stroke:#181818;stroke-width:1.0;"/></g><!--MD5=[5cf9307b03c55c7ec41c6e69d38431c0]
link JwtAuthService to Action`1--><g id="link_JwtAuthService_Action`1"><path codeLine="13" d="M437.02,200.5 C437.02,200.5 444.25,200.5 447.24,200.5 " fill="none" id="JwtAuthService-Action`1" style="stroke:#181818;stroke-width:1.0;"/><polygon fill="#181818" points="460.35,200.5,451.35,196.5,455.35,200.5,451.35,204.5,460.35,200.5" style="stroke:#181818;stroke-width:1.0;"/><line style="stroke:#181818;stroke-width:1.0;" x1="455.35" x2="447.35" y1="200.5" y2="200.5"/><polygon fill="none" points="425.02,200.5,431.02,204.5,437.02,200.5,431.02,196.5,425.02,200.5" style="stroke:#181818;stroke-width:1.0;"/><text fill="#000000" font-family="sans-serif" font-size="13" lengthAdjust="spacing" textLength="232" x="564.5838" y="186.0632">OnAuthStateChanged&lt;ClaimsPrincipal&gt;</text></g><!--MD5=[428f1e02e7eafc4b58357afa4fe1ffb3]
@startuml
class JwtAuthService {
    + JwtAuthService(httpClient:HttpClient)
    + {static} Jwt : string? <<get>> = ""
    + {static} Username : string <<get>> = ""
    + <<async>> LoginAsync(username:string, password:string) : Task
    + LogoutAsync() : Task
    + <<async>> RegisterAsync(user:User) : Task
    + GetAuthAsync() : Task<ClaimsPrincipal>
}
class "Action`1"<T> {
}
IAuthService <|- - JwtAuthService
JwtAuthService o-> "OnAuthStateChanged<ClaimsPrincipal>" "Action`1"
@enduml

PlantUML version 1.2022.7(Mon Aug 22 19:01:30 CEST 2022)
(GPL source distribution)
Java Runtime: OpenJDK Runtime Environment
JVM: OpenJDK 64-Bit Server VM
Default Encoding: Cp1252
Language: en
Country: US
--></g></svg>