<?xml version="1.0" encoding="UTF-8" standalone="no"?><svg xmlns="http://www.w3.org/2000/svg" xmlns:xlink="http://www.w3.org/1999/xlink" contentStyleType="text/css" height="275px" preserveAspectRatio="none" style="width:347px;height:275px;background:#FFFFFF;" version="1.1" viewBox="0 0 347 275" width="347px" zoomAndPan="magnify"><defs/><g><!--MD5=[09bd85a82e4317e380eb2b66f557d9c5]
class PostDao--><g id="elem_PostDao"><rect codeLine="1" fill="#F1F1F1" height="153.6563" id="PostDao" rx="2.5" ry="2.5" style="stroke:#181818;stroke-width:0.5;" width="333" x="7" y="115"/><ellipse cx="142.25" cy="131" fill="#ADD1B2" rx="11" ry="11" style="stroke:#181818;stroke-width:1.0;"/><path d="M145.0156,126.875 Q145.1719,126.6563 145.3594,126.5469 Q145.5469,126.4375 145.7656,126.4375 Q146.1406,126.4375 146.375,126.7031 Q146.6094,126.9531 146.6094,127.5625 L146.6094,129.0156 Q146.6094,129.625 146.375,129.8906 Q146.1406,130.1563 145.7656,130.1563 Q145.4219,130.1563 145.2188,129.9531 Q145.0156,129.7656 144.9063,129.25 Q144.8594,128.8906 144.6719,128.7031 Q144.3438,128.3281 143.7344,128.1094 Q143.125,127.8906 142.5,127.8906 Q141.7344,127.8906 141.0938,128.2188 Q140.4688,128.5469 139.9688,129.2969 Q139.4844,130.0469 139.4844,131.0781 L139.4844,132.1719 Q139.4844,133.4063 140.375,134.2344 Q141.2656,135.0469 142.8594,135.0469 Q143.7969,135.0469 144.4531,134.7969 Q144.8438,134.6406 145.2656,134.2031 Q145.5313,133.9375 145.6719,133.8594 Q145.8281,133.7813 146.0313,133.7813 Q146.3594,133.7813 146.6094,134.0469 Q146.875,134.2969 146.875,134.6406 Q146.875,134.9844 146.5313,135.3906 Q146.0313,135.9688 145.2344,136.2969 Q144.1563,136.75 142.8594,136.75 Q141.3438,136.75 140.1406,136.125 Q139.1563,135.625 138.4688,134.5625 Q137.7813,133.4844 137.7813,132.2031 L137.7813,131.0469 Q137.7813,129.7188 138.3906,128.5781 Q139.0156,127.4219 140.1094,126.8125 Q141.2031,126.1875 142.4375,126.1875 Q143.1719,126.1875 143.8125,126.3594 Q144.4688,126.5156 145.0156,126.875 Z " fill="#000000"/><text fill="#000000" font-family="sans-serif" font-size="14" lengthAdjust="spacing" textLength="54" x="162.75" y="136.7285">PostDao</text><line style="stroke:#181818;stroke-width:0.5;" x1="8" x2="339" y1="147" y2="147"/><line style="stroke:#181818;stroke-width:0.5;" x1="8" x2="339" y1="155" y2="155"/><ellipse cx="18" cy="169.3047" fill="#84BE84" rx="3" ry="3" style="stroke:#038048;stroke-width:1.0;"/><text fill="#000000" font-family="sans-serif" font-size="14" lengthAdjust="spacing" textLength="64" x="27" y="173.5332">PostDao()</text><ellipse cx="18" cy="186.9141" fill="#84BE84" rx="3" ry="3" style="stroke:#038048;stroke-width:1.0;"/><text fill="#000000" font-family="sans-serif" font-size="14" lengthAdjust="spacing" textLength="307" x="27" y="191.1426">«async» GetPosts() : Task&lt;IEnumerable&lt;Post&gt;&gt;</text><ellipse cx="18" cy="204.5234" fill="#84BE84" rx="3" ry="3" style="stroke:#038048;stroke-width:1.0;"/><text fill="#000000" font-family="sans-serif" font-size="14" lengthAdjust="spacing" textLength="235" x="27" y="208.752">«async» GetPost(id:int) : Task&lt;Post&gt;</text><ellipse cx="18" cy="222.1328" fill="#84BE84" rx="3" ry="3" style="stroke:#038048;stroke-width:1.0;"/><text fill="#000000" font-family="sans-serif" font-size="14" lengthAdjust="spacing" textLength="152" x="27" y="226.3613">DeletePost(id:int) : Task</text><ellipse cx="18" cy="239.7422" fill="#84BE84" rx="3" ry="3" style="stroke:#038048;stroke-width:1.0;"/><text fill="#000000" font-family="sans-serif" font-size="14" lengthAdjust="spacing" textLength="205" x="27" y="243.9707">CreatePost(post:PostDto) : Task</text><ellipse cx="18" cy="257.3516" fill="#84BE84" rx="3" ry="3" style="stroke:#038048;stroke-width:1.0;"/><text fill="#000000" font-family="sans-serif" font-size="14" lengthAdjust="spacing" textLength="185" x="27" y="261.5801">UpdatePost(post:Post) : Task</text></g><!--MD5=[66fcf5298d1973cf6caaae7c51b337a5]
class IPostDao--><g id="elem_IPostDao"><rect fill="#F1F1F1" height="48" id="IPostDao" rx="2.5" ry="2.5" style="stroke:#181818;stroke-width:0.5;" width="89" x="129" y="7"/><ellipse cx="144" cy="23" fill="#ADD1B2" rx="11" ry="11" style="stroke:#181818;stroke-width:1.0;"/><path d="M146.7656,18.875 Q146.9219,18.6563 147.1094,18.5469 Q147.2969,18.4375 147.5156,18.4375 Q147.8906,18.4375 148.125,18.7031 Q148.3594,18.9531 148.3594,19.5625 L148.3594,21.0156 Q148.3594,21.625 148.125,21.8906 Q147.8906,22.1563 147.5156,22.1563 Q147.1719,22.1563 146.9688,21.9531 Q146.7656,21.7656 146.6563,21.25 Q146.6094,20.8906 146.4219,20.7031 Q146.0938,20.3281 145.4844,20.1094 Q144.875,19.8906 144.25,19.8906 Q143.4844,19.8906 142.8438,20.2188 Q142.2188,20.5469 141.7188,21.2969 Q141.2344,22.0469 141.2344,23.0781 L141.2344,24.1719 Q141.2344,25.4063 142.125,26.2344 Q143.0156,27.0469 144.6094,27.0469 Q145.5469,27.0469 146.2031,26.7969 Q146.5938,26.6406 147.0156,26.2031 Q147.2813,25.9375 147.4219,25.8594 Q147.5781,25.7813 147.7813,25.7813 Q148.1094,25.7813 148.3594,26.0469 Q148.625,26.2969 148.625,26.6406 Q148.625,26.9844 148.2813,27.3906 Q147.7813,27.9688 146.9844,28.2969 Q145.9063,28.75 144.6094,28.75 Q143.0938,28.75 141.8906,28.125 Q140.9063,27.625 140.2188,26.5625 Q139.5313,25.4844 139.5313,24.2031 L139.5313,23.0469 Q139.5313,21.7188 140.1406,20.5781 Q140.7656,19.4219 141.8594,18.8125 Q142.9531,18.1875 144.1875,18.1875 Q144.9219,18.1875 145.5625,18.3594 Q146.2188,18.5156 146.7656,18.875 Z " fill="#000000"/><text fill="#000000" font-family="sans-serif" font-size="14" lengthAdjust="spacing" textLength="57" x="158" y="28.7285">IPostDao</text><line style="stroke:#181818;stroke-width:0.5;" x1="130" x2="217" y1="39" y2="39"/><line style="stroke:#181818;stroke-width:0.5;" x1="130" x2="217" y1="47" y2="47"/></g><!--MD5=[4116662f6d44d2763a9eb886f90156f9]
reverse link IPostDao to PostDao--><g id="link_IPostDao_PostDao"><path codeLine="9" d="M173.5,75.21 C173.5,87.43 173.5,101.11 173.5,114.67 " fill="none" id="IPostDao-backto-PostDao" style="stroke:#181818;stroke-width:1.0;"/><polygon fill="none" points="166.5,75.12,173.5,55.12,180.5,75.12,166.5,75.12" style="stroke:#181818;stroke-width:1.0;"/></g><!--MD5=[15a0242afee923b55291c2832c9b831a]
@startuml
class PostDao {
    + PostDao()
    + <<async>> GetPosts() : Task<IEnumerable<Post>>
    + <<async>> GetPost(id:int) : Task<Post>
    + DeletePost(id:int) : Task
    + CreatePost(post:PostDto) : Task
    + UpdatePost(post:Post) : Task
}
IPostDao <|- - PostDao
@enduml

PlantUML version 1.2022.7(Mon Aug 22 19:01:30 CEST 2022)
(GPL source distribution)
Java Runtime: OpenJDK Runtime Environment
JVM: OpenJDK 64-Bit Server VM
Default Encoding: Cp1252
Language: en
Country: US
--></g></svg>