<?xml version="1.0" encoding="UTF-8" standalone="no"?><svg xmlns="http://www.w3.org/2000/svg" xmlns:xlink="http://www.w3.org/1999/xlink" contentStyleType="text/css" height="240px" preserveAspectRatio="none" style="width:463px;height:240px;background:#FFFFFF;" version="1.1" viewBox="0 0 463 240" width="463px" zoomAndPan="magnify"><defs/><g><!--MD5=[9bb0bdd047fba1a3c8d48282c35b4537]
class Post--><g id="elem_Post"><rect codeLine="1" fill="#F1F1F1" height="118.4375" id="Post" rx="2.5" ry="2.5" style="stroke:#181818;stroke-width:0.5;" width="398" x="58.7789" y="7"/><ellipse cx="239.5289" cy="23" fill="#ADD1B2" rx="11" ry="11" style="stroke:#181818;stroke-width:1.0;"/><path d="M242.2945,18.875 Q242.4508,18.6563 242.6383,18.5469 Q242.8258,18.4375 243.0445,18.4375 Q243.4195,18.4375 243.6539,18.7031 Q243.8883,18.9531 243.8883,19.5625 L243.8883,21.0156 Q243.8883,21.625 243.6539,21.8906 Q243.4195,22.1563 243.0445,22.1563 Q242.7008,22.1563 242.4976,21.9531 Q242.2945,21.7656 242.1851,21.25 Q242.1383,20.8906 241.9508,20.7031 Q241.6226,20.3281 241.0133,20.1094 Q240.4039,19.8906 239.7789,19.8906 Q239.0133,19.8906 238.3726,20.2188 Q237.7476,20.5469 237.2476,21.2969 Q236.7633,22.0469 236.7633,23.0781 L236.7633,24.1719 Q236.7633,25.4063 237.6539,26.2344 Q238.5445,27.0469 240.1383,27.0469 Q241.0758,27.0469 241.732,26.7969 Q242.1226,26.6406 242.5445,26.2031 Q242.8101,25.9375 242.9508,25.8594 Q243.107,25.7813 243.3101,25.7813 Q243.6383,25.7813 243.8883,26.0469 Q244.1539,26.2969 244.1539,26.6406 Q244.1539,26.9844 243.8101,27.3906 Q243.3101,27.9688 242.5133,28.2969 Q241.4351,28.75 240.1383,28.75 Q238.6226,28.75 237.4195,28.125 Q236.4351,27.625 235.7476,26.5625 Q235.0601,25.4844 235.0601,24.2031 L235.0601,23.0469 Q235.0601,21.7188 235.6695,20.5781 Q236.2945,19.4219 237.3883,18.8125 Q238.482,18.1875 239.7164,18.1875 Q240.4508,18.1875 241.0914,18.3594 Q241.7476,18.5156 242.2945,18.875 Z " fill="#000000"/><text fill="#000000" font-family="sans-serif" font-size="14" lengthAdjust="spacing" textLength="28" x="260.0289" y="28.7285">Post</text><line style="stroke:#181818;stroke-width:0.5;" x1="59.7789" x2="455.7789" y1="39" y2="39"/><ellipse cx="69.7789" cy="53.3047" fill="none" rx="3" ry="3" style="stroke:#038048;stroke-width:1.0;"/><text fill="#000000" font-family="sans-serif" font-size="14" lengthAdjust="spacing" textLength="117" x="78.7789" y="57.5332">Id : int «get» «set»</text><ellipse cx="69.7789" cy="70.9141" fill="none" rx="3" ry="3" style="stroke:#038048;stroke-width:1.0;"/><text fill="#000000" font-family="sans-serif" font-size="14" lengthAdjust="spacing" textLength="172" x="78.7789" y="75.1426">Header : string «get» «set»</text><ellipse cx="69.7789" cy="88.5234" fill="none" rx="3" ry="3" style="stroke:#038048;stroke-width:1.0;"/><text fill="#000000" font-family="sans-serif" font-size="14" lengthAdjust="spacing" textLength="158" x="78.7789" y="92.752">Body : string «get» «set»</text><line style="stroke:#181818;stroke-width:0.5;" x1="59.7789" x2="455.7789" y1="99.8281" y2="99.8281"/><ellipse cx="69.7789" cy="114.1328" fill="#84BE84" rx="3" ry="3" style="stroke:#038048;stroke-width:1.0;"/><text fill="#000000" font-family="sans-serif" font-size="14" lengthAdjust="spacing" textLength="372" x="78.7789" y="118.3613">Post(id:int, header:string, body:string, createdAt:DateTime)</text></g><!--MD5=[e644022de7dea015dd09463c37421447]
class List`1--><g id="elem_List`1"><rect codeLine="7" fill="#F1F1F1" height="48" id="List`1" rx="2.5" ry="2.5" style="stroke:#181818;stroke-width:0.5;" width="78" x="158.7789" y="185"/><ellipse cx="173.7789" cy="201" fill="#ADD1B2" rx="11" ry="11" style="stroke:#181818;stroke-width:1.0;"/><path d="M176.5445,196.875 Q176.7008,196.6563 176.8883,196.5469 Q177.0758,196.4375 177.2945,196.4375 Q177.6695,196.4375 177.9039,196.7031 Q178.1383,196.9531 178.1383,197.5625 L178.1383,199.0156 Q178.1383,199.625 177.9039,199.8906 Q177.6695,200.1563 177.2945,200.1563 Q176.9508,200.1563 176.7476,199.9531 Q176.5445,199.7656 176.4351,199.25 Q176.3883,198.8906 176.2008,198.7031 Q175.8726,198.3281 175.2633,198.1094 Q174.6539,197.8906 174.0289,197.8906 Q173.2633,197.8906 172.6226,198.2188 Q171.9976,198.5469 171.4976,199.2969 Q171.0133,200.0469 171.0133,201.0781 L171.0133,202.1719 Q171.0133,203.4063 171.9039,204.2344 Q172.7945,205.0469 174.3883,205.0469 Q175.3258,205.0469 175.982,204.7969 Q176.3726,204.6406 176.7945,204.2031 Q177.0601,203.9375 177.2008,203.8594 Q177.357,203.7813 177.5601,203.7813 Q177.8883,203.7813 178.1383,204.0469 Q178.4039,204.2969 178.4039,204.6406 Q178.4039,204.9844 178.0601,205.3906 Q177.5601,205.9688 176.7633,206.2969 Q175.6851,206.75 174.3883,206.75 Q172.8726,206.75 171.6695,206.125 Q170.6851,205.625 169.9976,204.5625 Q169.3101,203.4844 169.3101,202.2031 L169.3101,201.0469 Q169.3101,199.7188 169.9195,198.5781 Q170.5445,197.4219 171.6383,196.8125 Q172.732,196.1875 173.9664,196.1875 Q174.7008,196.1875 175.3414,196.3594 Q175.9976,196.5156 176.5445,196.875 Z " fill="#000000"/><text fill="#000000" font-family="sans-serif" font-size="14" lengthAdjust="spacing" textLength="35" x="187.7789" y="206.7285">List`1</text><rect fill="#FFFFFF" height="17.0938" style="stroke:#181818;stroke-width:1.0;stroke-dasharray:2.0,2.0;" width="9" x="230.7789" y="182"/><text fill="#000000" font-family="sans-serif" font-size="12" font-style="italic" lengthAdjust="spacing" textLength="7" x="231.7789" y="195.457">T</text><line style="stroke:#181818;stroke-width:0.5;" x1="159.7789" x2="235.7789" y1="217" y2="217"/><line style="stroke:#181818;stroke-width:0.5;" x1="159.7789" x2="235.7789" y1="225" y2="225"/></g><!--MD5=[20ddef7090025b04fb973268620c0974]
class DateTime--><g id="elem_DateTime"><rect fill="#F1F1F1" height="48" id="DateTime" rx="2.5" ry="2.5" style="stroke:#181818;stroke-width:0.5;" width="93" x="272.2789" y="185"/><ellipse cx="287.2789" cy="201" fill="#ADD1B2" rx="11" ry="11" style="stroke:#181818;stroke-width:1.0;"/><path d="M290.0445,196.875 Q290.2008,196.6563 290.3883,196.5469 Q290.5758,196.4375 290.7945,196.4375 Q291.1695,196.4375 291.4039,196.7031 Q291.6383,196.9531 291.6383,197.5625 L291.6383,199.0156 Q291.6383,199.625 291.4039,199.8906 Q291.1695,200.1563 290.7945,200.1563 Q290.4508,200.1563 290.2476,199.9531 Q290.0445,199.7656 289.9351,199.25 Q289.8883,198.8906 289.7008,198.7031 Q289.3726,198.3281 288.7633,198.1094 Q288.1539,197.8906 287.5289,197.8906 Q286.7633,197.8906 286.1226,198.2188 Q285.4976,198.5469 284.9976,199.2969 Q284.5133,200.0469 284.5133,201.0781 L284.5133,202.1719 Q284.5133,203.4063 285.4039,204.2344 Q286.2945,205.0469 287.8883,205.0469 Q288.8258,205.0469 289.482,204.7969 Q289.8726,204.6406 290.2945,204.2031 Q290.5601,203.9375 290.7008,203.8594 Q290.857,203.7813 291.0601,203.7813 Q291.3883,203.7813 291.6383,204.0469 Q291.9039,204.2969 291.9039,204.6406 Q291.9039,204.9844 291.5601,205.3906 Q291.0601,205.9688 290.2633,206.2969 Q289.1851,206.75 287.8883,206.75 Q286.3726,206.75 285.1695,206.125 Q284.1851,205.625 283.4976,204.5625 Q282.8101,203.4844 282.8101,202.2031 L282.8101,201.0469 Q282.8101,199.7188 283.4195,198.5781 Q284.0445,197.4219 285.1383,196.8125 Q286.232,196.1875 287.4664,196.1875 Q288.2008,196.1875 288.8414,196.3594 Q289.4976,196.5156 290.0445,196.875 Z " fill="#000000"/><text fill="#000000" font-family="sans-serif" font-size="14" lengthAdjust="spacing" textLength="61" x="301.2789" y="206.7285">DateTime</text><line style="stroke:#181818;stroke-width:0.5;" x1="273.2789" x2="364.2789" y1="217" y2="217"/><line style="stroke:#181818;stroke-width:0.5;" x1="273.2789" x2="364.2789" y1="225" y2="225"/></g><!--MD5=[39a8b7e2892088292205482d0a603fa5]
link Post to DateTime--><g id="link_Post_DateTime"><path codeLine="9" d="M282.9389,125.16 C291.1489,144.14 299.8889,164.34 306.6789,180.05 " fill="none" id="Post-to-DateTime" style="stroke:#181818;stroke-width:1.0;"/><polygon fill="#181818" points="308.7289,184.77,308.8344,174.9217,306.7472,180.1795,301.4895,178.0923,308.7289,184.77" style="stroke:#181818;stroke-width:1.0;"/><text fill="#000000" font-family="sans-serif" font-size="13" lengthAdjust="spacing" textLength="58" x="240.7223" y="174.0512">CreatedAt</text></g><!--MD5=[c5d1c3f1ef636665f9528c67a497ebff]
link Post to List`1--><g id="link_Post_List`1"><path codeLine="10" d="M233.0189,125.16 C224.9489,144.14 216.3489,164.34 209.6689,180.05 " fill="none" id="Post-to-List`1" style="stroke:#181818;stroke-width:1.0;"/><polygon fill="#181818" points="207.6589,184.77,214.8631,178.0544,209.6164,180.1691,207.5017,174.9224,207.6589,184.77" style="stroke:#181818;stroke-width:1.0;"/><text fill="#000000" font-family="sans-serif" font-size="13" lengthAdjust="spacing" textLength="181" x="6" y="174.0512">SubComments&lt;SubComment&gt;</text></g><!--MD5=[13616ce9387e1fda2e426d2a0e17dd49]
@startuml
class Post {
    + Id : int <<get>> <<set>>
    + Header : string <<get>> <<set>>
    + Body : string <<get>> <<set>>
    + Post(id:int, header:string, body:string, createdAt:DateTime)
}
class "List`1"<T> {
}
Post - -> "CreatedAt" DateTime
Post - -> "SubComments<SubComment>" "List`1"
@enduml

PlantUML version 1.2022.7(Mon Aug 22 19:01:30 CEST 2022)
(GPL source distribution)
Java Runtime: OpenJDK Runtime Environment
JVM: OpenJDK 64-Bit Server VM
Default Encoding: Cp1252
Language: en
Country: US
--></g></svg>