<?xml version="1.0" encoding="UTF-8" standalone="no"?><svg xmlns="http://www.w3.org/2000/svg" xmlns:xlink="http://www.w3.org/1999/xlink" contentStyleType="text/css" height="222px" preserveAspectRatio="none" style="width:456px;height:222px;background:#FFFFFF;" version="1.1" viewBox="0 0 456 222" width="456px" zoomAndPan="magnify"><defs/><g><!--MD5=[70d98a5b6eddfa62f6550e7c1d028c5c]
class UserDao--><g id="elem_UserDao"><rect codeLine="1" fill="#F1F1F1" height="100.8281" id="UserDao" rx="2.5" ry="2.5" style="stroke:#181818;stroke-width:0.5;" width="442" x="7" y="115"/><ellipse cx="196.25" cy="131" fill="#ADD1B2" rx="11" ry="11" style="stroke:#181818;stroke-width:1.0;"/><path d="M199.0156,126.875 Q199.1719,126.6563 199.3594,126.5469 Q199.5469,126.4375 199.7656,126.4375 Q200.1406,126.4375 200.375,126.7031 Q200.6094,126.9531 200.6094,127.5625 L200.6094,129.0156 Q200.6094,129.625 200.375,129.8906 Q200.1406,130.1563 199.7656,130.1563 Q199.4219,130.1563 199.2188,129.9531 Q199.0156,129.7656 198.9063,129.25 Q198.8594,128.8906 198.6719,128.7031 Q198.3438,128.3281 197.7344,128.1094 Q197.125,127.8906 196.5,127.8906 Q195.7344,127.8906 195.0938,128.2188 Q194.4688,128.5469 193.9688,129.2969 Q193.4844,130.0469 193.4844,131.0781 L193.4844,132.1719 Q193.4844,133.4063 194.375,134.2344 Q195.2656,135.0469 196.8594,135.0469 Q197.7969,135.0469 198.4531,134.7969 Q198.8438,134.6406 199.2656,134.2031 Q199.5313,133.9375 199.6719,133.8594 Q199.8281,133.7813 200.0313,133.7813 Q200.3594,133.7813 200.6094,134.0469 Q200.875,134.2969 200.875,134.6406 Q200.875,134.9844 200.5313,135.3906 Q200.0313,135.9688 199.2344,136.2969 Q198.1563,136.75 196.8594,136.75 Q195.3438,136.75 194.1406,136.125 Q193.1563,135.625 192.4688,134.5625 Q191.7813,133.4844 191.7813,132.2031 L191.7813,131.0469 Q191.7813,129.7188 192.3906,128.5781 Q193.0156,127.4219 194.1094,126.8125 Q195.2031,126.1875 196.4375,126.1875 Q197.1719,126.1875 197.8125,126.3594 Q198.4688,126.5156 199.0156,126.875 Z " fill="#000000"/><text fill="#000000" font-family="sans-serif" font-size="14" lengthAdjust="spacing" textLength="55" x="216.75" y="136.7285">UserDao</text><line style="stroke:#181818;stroke-width:0.5;" x1="8" x2="448" y1="147" y2="147"/><line style="stroke:#181818;stroke-width:0.5;" x1="8" x2="448" y1="155" y2="155"/><ellipse cx="18" cy="169.3047" fill="#84BE84" rx="3" ry="3" style="stroke:#038048;stroke-width:1.0;"/><text fill="#000000" font-family="sans-serif" font-size="14" lengthAdjust="spacing" textLength="65" x="27" y="173.5332">UserDao()</text><ellipse cx="18" cy="186.9141" fill="#84BE84" rx="3" ry="3" style="stroke:#038048;stroke-width:1.0;"/><text fill="#000000" font-family="sans-serif" font-size="14" lengthAdjust="spacing" textLength="416" x="27" y="191.1426">«async» GetUser(username:string, password:string) : Task&lt;User&gt;</text><ellipse cx="18" cy="204.5234" fill="#84BE84" rx="3" ry="3" style="stroke:#038048;stroke-width:1.0;"/><text fill="#000000" font-family="sans-serif" font-size="14" lengthAdjust="spacing" textLength="196" x="27" y="208.752">RegisterUser(user:User) : Task</text></g><!--MD5=[6b22b54f1b1c0cb32b65f55d2c4fc938]
class IUserDao--><g id="elem_IUserDao"><rect fill="#F1F1F1" height="48" id="IUserDao" rx="2.5" ry="2.5" style="stroke:#181818;stroke-width:0.5;" width="90" x="183" y="7"/><ellipse cx="198" cy="23" fill="#ADD1B2" rx="11" ry="11" style="stroke:#181818;stroke-width:1.0;"/><path d="M200.7656,18.875 Q200.9219,18.6563 201.1094,18.5469 Q201.2969,18.4375 201.5156,18.4375 Q201.8906,18.4375 202.125,18.7031 Q202.3594,18.9531 202.3594,19.5625 L202.3594,21.0156 Q202.3594,21.625 202.125,21.8906 Q201.8906,22.1563 201.5156,22.1563 Q201.1719,22.1563 200.9688,21.9531 Q200.7656,21.7656 200.6563,21.25 Q200.6094,20.8906 200.4219,20.7031 Q200.0938,20.3281 199.4844,20.1094 Q198.875,19.8906 198.25,19.8906 Q197.4844,19.8906 196.8438,20.2188 Q196.2188,20.5469 195.7188,21.2969 Q195.2344,22.0469 195.2344,23.0781 L195.2344,24.1719 Q195.2344,25.4063 196.125,26.2344 Q197.0156,27.0469 198.6094,27.0469 Q199.5469,27.0469 200.2031,26.7969 Q200.5938,26.6406 201.0156,26.2031 Q201.2813,25.9375 201.4219,25.8594 Q201.5781,25.7813 201.7813,25.7813 Q202.1094,25.7813 202.3594,26.0469 Q202.625,26.2969 202.625,26.6406 Q202.625,26.9844 202.2813,27.3906 Q201.7813,27.9688 200.9844,28.2969 Q199.9063,28.75 198.6094,28.75 Q197.0938,28.75 195.8906,28.125 Q194.9063,27.625 194.2188,26.5625 Q193.5313,25.4844 193.5313,24.2031 L193.5313,23.0469 Q193.5313,21.7188 194.1406,20.5781 Q194.7656,19.4219 195.8594,18.8125 Q196.9531,18.1875 198.1875,18.1875 Q198.9219,18.1875 199.5625,18.3594 Q200.2188,18.5156 200.7656,18.875 Z " fill="#000000"/><text fill="#000000" font-family="sans-serif" font-size="14" lengthAdjust="spacing" textLength="58" x="212" y="28.7285">IUserDao</text><line style="stroke:#181818;stroke-width:0.5;" x1="184" x2="272" y1="39" y2="39"/><line style="stroke:#181818;stroke-width:0.5;" x1="184" x2="272" y1="47" y2="47"/></g><!--MD5=[4adcf313786a2421c9f2d73d3fd73d21]
reverse link IUserDao to UserDao--><g id="link_IUserDao_UserDao"><path codeLine="6" d="M228,75.34 C228,87.95 228,101.82 228,114.8 " fill="none" id="IUserDao-backto-UserDao" style="stroke:#181818;stroke-width:1.0;"/><polygon fill="none" points="221,75.08,228,55.08,235,75.08,221,75.08" style="stroke:#181818;stroke-width:1.0;"/></g><!--MD5=[019be8dfe66ff99218a6254a28c8a592]
@startuml
class UserDao {
    + UserDao()
    + <<async>> GetUser(username:string, password:string) : Task<User>
    + RegisterUser(user:User) : Task
}
IUserDao <|- - UserDao
@enduml

PlantUML version 1.2022.7(Mon Aug 22 19:01:30 CEST 2022)
(GPL source distribution)
Java Runtime: OpenJDK Runtime Environment
JVM: OpenJDK 64-Bit Server VM
Default Encoding: Cp1252
Language: en
Country: US
--></g></svg>