<?xml version="1.0" encoding="UTF-8" standalone="no"?><svg xmlns="http://www.w3.org/2000/svg" xmlns:xlink="http://www.w3.org/1999/xlink" contentStyleType="text/css" height="240px" preserveAspectRatio="none" style="width:455px;height:240px;background:#FFFFFF;" version="1.1" viewBox="0 0 455 240" width="455px" zoomAndPan="magnify"><defs/><g><!--MD5=[1a70795ac229e48b124a99137acc095a]
class IAuthService--><g id="elem_IAuthService"><rect codeLine="1" fill="#F1F1F1" height="118.4375" id="IAuthService" rx="2.5" ry="2.5" style="stroke:#181818;stroke-width:0.5;" width="361" x="87.225" y="7"/><ellipse cx="223.975" cy="23" fill="#B4A7E5" rx="11" ry="11" style="stroke:#181818;stroke-width:1.0;"/><path d="M224.9281,19.6406 L224.9281,26.2969 L226.6469,26.2969 Q227.2563,26.2969 227.5219,26.5313 Q227.7875,26.7656 227.7875,27.1563 Q227.7875,27.5313 227.5219,27.7656 Q227.2563,28 226.6469,28 L221.5063,28 Q220.8969,28 220.6313,27.7656 Q220.3656,27.5313 220.3656,27.1406 Q220.3656,26.7656 220.6313,26.5313 Q220.8969,26.2969 221.5063,26.2969 L223.225,26.2969 L223.225,19.6406 L221.5063,19.6406 Q220.8969,19.6406 220.6313,19.4063 Q220.3656,19.1719 220.3656,18.7813 Q220.3656,18.4063 220.6313,18.1719 Q220.8969,17.9375 221.5063,17.9375 L226.6469,17.9375 Q227.2563,17.9375 227.5219,18.1719 Q227.7875,18.4063 227.7875,18.7813 Q227.7875,19.1719 227.5219,19.4063 Q227.2563,19.6406 226.6469,19.6406 L224.9281,19.6406 Z " fill="#000000"/><text fill="#000000" font-family="sans-serif" font-size="14" font-style="italic" lengthAdjust="spacing" textLength="79" x="244.475" y="28.7285">IAuthService</text><line style="stroke:#181818;stroke-width:0.5;" x1="88.225" x2="447.225" y1="39" y2="39"/><line style="stroke:#181818;stroke-width:0.5;" x1="88.225" x2="447.225" y1="47" y2="47"/><ellipse cx="98.225" cy="61.3047" fill="#84BE84" rx="3" ry="3" style="stroke:#038048;stroke-width:1.0;"/><text fill="#000000" font-family="sans-serif" font-size="14" lengthAdjust="spacing" textLength="335" x="107.225" y="65.5332">LoginAsync(username:string, password:string) : Task</text><ellipse cx="98.225" cy="78.9141" fill="#84BE84" rx="3" ry="3" style="stroke:#038048;stroke-width:1.0;"/><text fill="#000000" font-family="sans-serif" font-size="14" lengthAdjust="spacing" textLength="135" x="107.225" y="83.1426">LogoutAsync() : Task</text><ellipse cx="98.225" cy="96.5234" fill="#84BE84" rx="3" ry="3" style="stroke:#038048;stroke-width:1.0;"/><text fill="#000000" font-family="sans-serif" font-size="14" lengthAdjust="spacing" textLength="205" x="107.225" y="100.752">RegisterAsync(user:User) : Task</text><ellipse cx="98.225" cy="114.1328" fill="#84BE84" rx="3" ry="3" style="stroke:#038048;stroke-width:1.0;"/><text fill="#000000" font-family="sans-serif" font-size="14" lengthAdjust="spacing" textLength="255" x="107.225" y="118.3613">GetAuthAsync() : Task&lt;ClaimsPrincipal&gt;</text></g><!--MD5=[a11544de820a927b3dbade298cf8c341]
class Action`1--><g id="elem_Action`1"><rect codeLine="7" fill="#F1F1F1" height="48" id="Action`1" rx="2.5" ry="2.5" style="stroke:#181818;stroke-width:0.5;" width="95" x="220.225" y="185"/><ellipse cx="235.225" cy="201" fill="#ADD1B2" rx="11" ry="11" style="stroke:#181818;stroke-width:1.0;"/><path d="M237.9906,196.875 Q238.1469,196.6563 238.3344,196.5469 Q238.5219,196.4375 238.7406,196.4375 Q239.1156,196.4375 239.35,196.7031 Q239.5844,196.9531 239.5844,197.5625 L239.5844,199.0156 Q239.5844,199.625 239.35,199.8906 Q239.1156,200.1563 238.7406,200.1563 Q238.3969,200.1563 238.1938,199.9531 Q237.9906,199.7656 237.8813,199.25 Q237.8344,198.8906 237.6469,198.7031 Q237.3188,198.3281 236.7094,198.1094 Q236.1,197.8906 235.475,197.8906 Q234.7094,197.8906 234.0688,198.2188 Q233.4438,198.5469 232.9438,199.2969 Q232.4594,200.0469 232.4594,201.0781 L232.4594,202.1719 Q232.4594,203.4063 233.35,204.2344 Q234.2406,205.0469 235.8344,205.0469 Q236.7719,205.0469 237.4281,204.7969 Q237.8188,204.6406 238.2406,204.2031 Q238.5063,203.9375 238.6469,203.8594 Q238.8031,203.7813 239.0063,203.7813 Q239.3344,203.7813 239.5844,204.0469 Q239.85,204.2969 239.85,204.6406 Q239.85,204.9844 239.5063,205.3906 Q239.0063,205.9688 238.2094,206.2969 Q237.1313,206.75 235.8344,206.75 Q234.3188,206.75 233.1156,206.125 Q232.1313,205.625 231.4438,204.5625 Q230.7563,203.4844 230.7563,202.2031 L230.7563,201.0469 Q230.7563,199.7188 231.3656,198.5781 Q231.9906,197.4219 233.0844,196.8125 Q234.1781,196.1875 235.4125,196.1875 Q236.1469,196.1875 236.7875,196.3594 Q237.4438,196.5156 237.9906,196.875 Z " fill="#000000"/><text fill="#000000" font-family="sans-serif" font-size="14" lengthAdjust="spacing" textLength="52" x="249.225" y="206.7285">Action`1</text><rect fill="#FFFFFF" height="17.0938" style="stroke:#181818;stroke-width:1.0;stroke-dasharray:2.0,2.0;" width="9" x="309.225" y="182"/><text fill="#000000" font-family="sans-serif" font-size="12" font-style="italic" lengthAdjust="spacing" textLength="7" x="310.225" y="195.457">T</text><line style="stroke:#181818;stroke-width:0.5;" x1="221.225" x2="314.225" y1="217" y2="217"/><line style="stroke:#181818;stroke-width:0.5;" x1="221.225" x2="314.225" y1="225" y2="225"/></g><!--MD5=[d58955600fe22895b2dd194466f8c787]
link IAuthService to Action`1--><g id="link_IAuthService_Action`1"><path codeLine="9" d="M267.725,125.16 C267.725,143.97 267.725,164 267.725,179.64 " fill="none" id="IAuthService-to-Action`1" style="stroke:#181818;stroke-width:1.0;"/><polygon fill="#181818" points="267.725,184.77,271.725,175.77,267.725,179.77,263.725,175.77,267.725,184.77" style="stroke:#181818;stroke-width:1.0;"/><text fill="#000000" font-family="sans-serif" font-size="13" lengthAdjust="spacing" textLength="232" x="6" y="174.0512">OnAuthStateChanged&lt;ClaimsPrincipal&gt;</text></g><!--MD5=[5d161bc3aaad317138309e38ace515cd]
@startuml
interface IAuthService {
    + LoginAsync(username:string, password:string) : Task
    + LogoutAsync() : Task
    + RegisterAsync(user:User) : Task
    + GetAuthAsync() : Task<ClaimsPrincipal>
}
class "Action`1"<T> {
}
IAuthService - -> "OnAuthStateChanged<ClaimsPrincipal>" "Action`1"
@enduml

PlantUML version 1.2022.7(Mon Aug 22 19:01:30 CEST 2022)
(GPL source distribution)
Java Runtime: OpenJDK Runtime Environment
JVM: OpenJDK 64-Bit Server VM
Default Encoding: Cp1252
Language: en
Country: US
--></g></svg>