<?xml version="1.0" encoding="UTF-8" standalone="no"?><svg xmlns="http://www.w3.org/2000/svg" xmlns:xlink="http://www.w3.org/1999/xlink" contentStyleType="text/css" height="205px" preserveAspectRatio="none" style="width:258px;height:205px;background:#FFFFFF;" version="1.1" viewBox="0 0 258 205" width="258px" zoomAndPan="magnify"><defs/><g><!--MD5=[c96564e45ad4acd654eac0536f5eb752]
class PostListNotFound--><g id="elem_PostListNotFound"><rect codeLine="1" fill="#F1F1F1" height="83.2188" id="PostListNotFound" rx="2.5" ry="2.5" style="stroke:#181818;stroke-width:0.5;" width="244" x="7" y="115"/><ellipse cx="68.75" cy="131" fill="#ADD1B2" rx="11" ry="11" style="stroke:#181818;stroke-width:1.0;"/><path d="M71.5156,126.875 Q71.6719,126.6563 71.8594,126.5469 Q72.0469,126.4375 72.2656,126.4375 Q72.6406,126.4375 72.875,126.7031 Q73.1094,126.9531 73.1094,127.5625 L73.1094,129.0156 Q73.1094,129.625 72.875,129.8906 Q72.6406,130.1563 72.2656,130.1563 Q71.9219,130.1563 71.7188,129.9531 Q71.5156,129.7656 71.4063,129.25 Q71.3594,128.8906 71.1719,128.7031 Q70.8438,128.3281 70.2344,128.1094 Q69.625,127.8906 69,127.8906 Q68.2344,127.8906 67.5938,128.2188 Q66.9688,128.5469 66.4688,129.2969 Q65.9844,130.0469 65.9844,131.0781 L65.9844,132.1719 Q65.9844,133.4063 66.875,134.2344 Q67.7656,135.0469 69.3594,135.0469 Q70.2969,135.0469 70.9531,134.7969 Q71.3438,134.6406 71.7656,134.2031 Q72.0313,133.9375 72.1719,133.8594 Q72.3281,133.7813 72.5313,133.7813 Q72.8594,133.7813 73.1094,134.0469 Q73.375,134.2969 73.375,134.6406 Q73.375,134.9844 73.0313,135.3906 Q72.5313,135.9688 71.7344,136.2969 Q70.6563,136.75 69.3594,136.75 Q67.8438,136.75 66.6406,136.125 Q65.6563,135.625 64.9688,134.5625 Q64.2813,133.4844 64.2813,132.2031 L64.2813,131.0469 Q64.2813,129.7188 64.8906,128.5781 Q65.5156,127.4219 66.6094,126.8125 Q67.7031,126.1875 68.9375,126.1875 Q69.6719,126.1875 70.3125,126.3594 Q70.9688,126.5156 71.5156,126.875 Z " fill="#000000"/><text fill="#000000" font-family="sans-serif" font-size="14" lengthAdjust="spacing" textLength="112" x="89.25" y="136.7285">PostListNotFound</text><line style="stroke:#181818;stroke-width:0.5;" x1="8" x2="250" y1="147" y2="147"/><line style="stroke:#181818;stroke-width:0.5;" x1="8" x2="250" y1="155" y2="155"/><ellipse cx="18" cy="169.3047" fill="#84BE84" rx="3" ry="3" style="stroke:#038048;stroke-width:1.0;"/><text fill="#000000" font-family="sans-serif" font-size="14" lengthAdjust="spacing" textLength="122" x="27" y="173.5332">PostListNotFound()</text><ellipse cx="18" cy="186.9141" fill="#84BE84" rx="3" ry="3" style="stroke:#038048;stroke-width:1.0;"/><text fill="#000000" font-family="sans-serif" font-size="14" lengthAdjust="spacing" textLength="218" x="27" y="191.1426">PostListNotFound(message:string)</text></g><!--MD5=[8db60afef7a3447bbe27c5ed187fdac2]
class Exception--><g id="elem_Exception"><rect fill="#F1F1F1" height="48" id="Exception" rx="2.5" ry="2.5" style="stroke:#181818;stroke-width:0.5;" width="93" x="82.5" y="7"/><ellipse cx="97.5" cy="23" fill="#ADD1B2" rx="11" ry="11" style="stroke:#181818;stroke-width:1.0;"/><path d="M100.2656,18.875 Q100.4219,18.6563 100.6094,18.5469 Q100.7969,18.4375 101.0156,18.4375 Q101.3906,18.4375 101.625,18.7031 Q101.8594,18.9531 101.8594,19.5625 L101.8594,21.0156 Q101.8594,21.625 101.625,21.8906 Q101.3906,22.1563 101.0156,22.1563 Q100.6719,22.1563 100.4688,21.9531 Q100.2656,21.7656 100.1563,21.25 Q100.1094,20.8906 99.9219,20.7031 Q99.5938,20.3281 98.9844,20.1094 Q98.375,19.8906 97.75,19.8906 Q96.9844,19.8906 96.3438,20.2188 Q95.7188,20.5469 95.2188,21.2969 Q94.7344,22.0469 94.7344,23.0781 L94.7344,24.1719 Q94.7344,25.4063 95.625,26.2344 Q96.5156,27.0469 98.1094,27.0469 Q99.0469,27.0469 99.7031,26.7969 Q100.0938,26.6406 100.5156,26.2031 Q100.7813,25.9375 100.9219,25.8594 Q101.0781,25.7813 101.2813,25.7813 Q101.6094,25.7813 101.8594,26.0469 Q102.125,26.2969 102.125,26.6406 Q102.125,26.9844 101.7813,27.3906 Q101.2813,27.9688 100.4844,28.2969 Q99.4063,28.75 98.1094,28.75 Q96.5938,28.75 95.3906,28.125 Q94.4063,27.625 93.7188,26.5625 Q93.0313,25.4844 93.0313,24.2031 L93.0313,23.0469 Q93.0313,21.7188 93.6406,20.5781 Q94.2656,19.4219 95.3594,18.8125 Q96.4531,18.1875 97.6875,18.1875 Q98.4219,18.1875 99.0625,18.3594 Q99.7188,18.5156 100.2656,18.875 Z " fill="#000000"/><text fill="#000000" font-family="sans-serif" font-size="14" lengthAdjust="spacing" textLength="61" x="111.5" y="28.7285">Exception</text><line style="stroke:#181818;stroke-width:0.5;" x1="83.5" x2="174.5" y1="39" y2="39"/><line style="stroke:#181818;stroke-width:0.5;" x1="83.5" x2="174.5" y1="47" y2="47"/></g><!--MD5=[ba92393c880cc9fc88a903bdcde8511e]
reverse link Exception to PostListNotFound--><g id="link_Exception_PostListNotFound"><path codeLine="5" d="M129,75.31 C129,88.16 129,102.19 129,114.87 " fill="none" id="Exception-backto-PostListNotFound" style="stroke:#181818;stroke-width:1.0;"/><polygon fill="none" points="122,75.23,129,55.23,136,75.23,122,75.23" style="stroke:#181818;stroke-width:1.0;"/></g><!--MD5=[438f5fb507b85190508d7c5c9a55caf2]
@startuml
class PostListNotFound {
    + PostListNotFound()
    + PostListNotFound(message:string)
}
Exception <|- - PostListNotFound
@enduml

PlantUML version 1.2022.7(Mon Aug 22 19:01:30 CEST 2022)
(GPL source distribution)
Java Runtime: OpenJDK Runtime Environment
JVM: OpenJDK 64-Bit Server VM
Default Encoding: Cp1252
Language: en
Country: US
--></g></svg>