<?xml version="1.0" encoding="UTF-8" standalone="no"?><svg xmlns="http://www.w3.org/2000/svg" xmlns:xlink="http://www.w3.org/1999/xlink" contentStyleType="text/css" height="222px" preserveAspectRatio="none" style="width:464px;height:222px;background:#FFFFFF;" version="1.1" viewBox="0 0 464 222" width="464px" zoomAndPan="magnify"><defs/><g><!--MD5=[c665784f0b12a03fd961b1346152bc39]
class UserNotFoundException--><g id="elem_UserNotFoundException"><rect codeLine="1" fill="#F1F1F1" height="100.8281" id="UserNotFoundException" rx="2.5" ry="2.5" style="stroke:#181818;stroke-width:0.5;" width="450" x="7" y="115"/><ellipse cx="151.75" cy="131" fill="#ADD1B2" rx="11" ry="11" style="stroke:#181818;stroke-width:1.0;"/><path d="M154.5156,126.875 Q154.6719,126.6563 154.8594,126.5469 Q155.0469,126.4375 155.2656,126.4375 Q155.6406,126.4375 155.875,126.7031 Q156.1094,126.9531 156.1094,127.5625 L156.1094,129.0156 Q156.1094,129.625 155.875,129.8906 Q155.6406,130.1563 155.2656,130.1563 Q154.9219,130.1563 154.7188,129.9531 Q154.5156,129.7656 154.4063,129.25 Q154.3594,128.8906 154.1719,128.7031 Q153.8438,128.3281 153.2344,128.1094 Q152.625,127.8906 152,127.8906 Q151.2344,127.8906 150.5938,128.2188 Q149.9688,128.5469 149.4688,129.2969 Q148.9844,130.0469 148.9844,131.0781 L148.9844,132.1719 Q148.9844,133.4063 149.875,134.2344 Q150.7656,135.0469 152.3594,135.0469 Q153.2969,135.0469 153.9531,134.7969 Q154.3438,134.6406 154.7656,134.2031 Q155.0313,133.9375 155.1719,133.8594 Q155.3281,133.7813 155.5313,133.7813 Q155.8594,133.7813 156.1094,134.0469 Q156.375,134.2969 156.375,134.6406 Q156.375,134.9844 156.0313,135.3906 Q155.5313,135.9688 154.7344,136.2969 Q153.6563,136.75 152.3594,136.75 Q150.8438,136.75 149.6406,136.125 Q148.6563,135.625 147.9688,134.5625 Q147.2813,133.4844 147.2813,132.2031 L147.2813,131.0469 Q147.2813,129.7188 147.8906,128.5781 Q148.5156,127.4219 149.6094,126.8125 Q150.7031,126.1875 151.9375,126.1875 Q152.6719,126.1875 153.3125,126.3594 Q153.9688,126.5156 154.5156,126.875 Z " fill="#000000"/><text fill="#000000" font-family="sans-serif" font-size="14" lengthAdjust="spacing" textLength="152" x="172.25" y="136.7285">UserNotFoundException</text><line style="stroke:#181818;stroke-width:0.5;" x1="8" x2="456" y1="147" y2="147"/><line style="stroke:#181818;stroke-width:0.5;" x1="8" x2="456" y1="155" y2="155"/><ellipse cx="18" cy="169.3047" fill="#84BE84" rx="3" ry="3" style="stroke:#038048;stroke-width:1.0;"/><text fill="#000000" font-family="sans-serif" font-size="14" lengthAdjust="spacing" textLength="162" x="27" y="173.5332">UserNotFoundException()</text><ellipse cx="18" cy="186.9141" fill="#84BE84" rx="3" ry="3" style="stroke:#038048;stroke-width:1.0;"/><text fill="#000000" font-family="sans-serif" font-size="14" lengthAdjust="spacing" textLength="258" x="27" y="191.1426">UserNotFoundException(message:string)</text><ellipse cx="18" cy="204.5234" fill="#84BE84" rx="3" ry="3" style="stroke:#038048;stroke-width:1.0;"/><text fill="#000000" font-family="sans-serif" font-size="14" lengthAdjust="spacing" textLength="424" x="27" y="208.752">UserNotFoundException(message:string, innerException:Exception)</text></g><!--MD5=[8db60afef7a3447bbe27c5ed187fdac2]
class Exception--><g id="elem_Exception"><rect fill="#F1F1F1" height="48" id="Exception" rx="2.5" ry="2.5" style="stroke:#181818;stroke-width:0.5;" width="93" x="185.5" y="7"/><ellipse cx="200.5" cy="23" fill="#ADD1B2" rx="11" ry="11" style="stroke:#181818;stroke-width:1.0;"/><path d="M203.2656,18.875 Q203.4219,18.6563 203.6094,18.5469 Q203.7969,18.4375 204.0156,18.4375 Q204.3906,18.4375 204.625,18.7031 Q204.8594,18.9531 204.8594,19.5625 L204.8594,21.0156 Q204.8594,21.625 204.625,21.8906 Q204.3906,22.1563 204.0156,22.1563 Q203.6719,22.1563 203.4688,21.9531 Q203.2656,21.7656 203.1563,21.25 Q203.1094,20.8906 202.9219,20.7031 Q202.5938,20.3281 201.9844,20.1094 Q201.375,19.8906 200.75,19.8906 Q199.9844,19.8906 199.3438,20.2188 Q198.7188,20.5469 198.2188,21.2969 Q197.7344,22.0469 197.7344,23.0781 L197.7344,24.1719 Q197.7344,25.4063 198.625,26.2344 Q199.5156,27.0469 201.1094,27.0469 Q202.0469,27.0469 202.7031,26.7969 Q203.0938,26.6406 203.5156,26.2031 Q203.7813,25.9375 203.9219,25.8594 Q204.0781,25.7813 204.2813,25.7813 Q204.6094,25.7813 204.8594,26.0469 Q205.125,26.2969 205.125,26.6406 Q205.125,26.9844 204.7813,27.3906 Q204.2813,27.9688 203.4844,28.2969 Q202.4063,28.75 201.1094,28.75 Q199.5938,28.75 198.3906,28.125 Q197.4063,27.625 196.7188,26.5625 Q196.0313,25.4844 196.0313,24.2031 L196.0313,23.0469 Q196.0313,21.7188 196.6406,20.5781 Q197.2656,19.4219 198.3594,18.8125 Q199.4531,18.1875 200.6875,18.1875 Q201.4219,18.1875 202.0625,18.3594 Q202.7188,18.5156 203.2656,18.875 Z " fill="#000000"/><text fill="#000000" font-family="sans-serif" font-size="14" lengthAdjust="spacing" textLength="61" x="214.5" y="28.7285">Exception</text><line style="stroke:#181818;stroke-width:0.5;" x1="186.5" x2="277.5" y1="39" y2="39"/><line style="stroke:#181818;stroke-width:0.5;" x1="186.5" x2="277.5" y1="47" y2="47"/></g><!--MD5=[bfa2075d4dfc79430b2e33ccfb63d7a0]
reverse link Exception to UserNotFoundException--><g id="link_Exception_UserNotFoundException"><path codeLine="6" d="M232,75.34 C232,87.95 232,101.82 232,114.8 " fill="none" id="Exception-backto-UserNotFoundException" style="stroke:#181818;stroke-width:1.0;"/><polygon fill="none" points="225,75.08,232,55.08,239,75.08,225,75.08" style="stroke:#181818;stroke-width:1.0;"/></g><!--MD5=[31016c790516ffa2d6a863a807a8aecd]
@startuml
class UserNotFoundException {
    + UserNotFoundException()
    + UserNotFoundException(message:string)
    + UserNotFoundException(message:string, innerException:Exception)
}
Exception <|- - UserNotFoundException
@enduml

PlantUML version 1.2022.7(Mon Aug 22 19:01:30 CEST 2022)
(GPL source distribution)
Java Runtime: OpenJDK Runtime Environment
JVM: OpenJDK 64-Bit Server VM
Default Encoding: Cp1252
Language: en
Country: US
--></g></svg>