<?xml version="1.0" encoding="UTF-8" standalone="no"?><svg xmlns="http://www.w3.org/2000/svg" xmlns:xlink="http://www.w3.org/1999/xlink" contentStyleType="text/css" height="65px" preserveAspectRatio="none" style="width:287px;height:65px;background:#FFFFFF;" version="1.1" viewBox="0 0 287 65" width="287px" zoomAndPan="magnify"><defs/><g><!--MD5=[24912b8c913ef6d81c3dfac4a7781317]
class Add`1--><g id="elem_Add`1"><rect codeLine="1" fill="#F1F1F1" height="48" id="Add`1" rx="2.5" ry="2.5" style="stroke:#181818;stroke-width:0.5;" width="81" x="7" y="10"/><ellipse cx="22" cy="26" fill="#ADD1B2" rx="11" ry="11" style="stroke:#181818;stroke-width:1.0;"/><path d="M24.7656,21.875 Q24.9219,21.6563 25.1094,21.5469 Q25.2969,21.4375 25.5156,21.4375 Q25.8906,21.4375 26.125,21.7031 Q26.3594,21.9531 26.3594,22.5625 L26.3594,24.0156 Q26.3594,24.625 26.125,24.8906 Q25.8906,25.1563 25.5156,25.1563 Q25.1719,25.1563 24.9688,24.9531 Q24.7656,24.7656 24.6563,24.25 Q24.6094,23.8906 24.4219,23.7031 Q24.0938,23.3281 23.4844,23.1094 Q22.875,22.8906 22.25,22.8906 Q21.4844,22.8906 20.8438,23.2188 Q20.2188,23.5469 19.7188,24.2969 Q19.2344,25.0469 19.2344,26.0781 L19.2344,27.1719 Q19.2344,28.4063 20.125,29.2344 Q21.0156,30.0469 22.6094,30.0469 Q23.5469,30.0469 24.2031,29.7969 Q24.5938,29.6406 25.0156,29.2031 Q25.2813,28.9375 25.4219,28.8594 Q25.5781,28.7813 25.7813,28.7813 Q26.1094,28.7813 26.3594,29.0469 Q26.625,29.2969 26.625,29.6406 Q26.625,29.9844 26.2813,30.3906 Q25.7813,30.9688 24.9844,31.2969 Q23.9063,31.75 22.6094,31.75 Q21.0938,31.75 19.8906,31.125 Q18.9063,30.625 18.2188,29.5625 Q17.5313,28.4844 17.5313,27.2031 L17.5313,26.0469 Q17.5313,24.7188 18.1406,23.5781 Q18.7656,22.4219 19.8594,21.8125 Q20.9531,21.1875 22.1875,21.1875 Q22.9219,21.1875 23.5625,21.3594 Q24.2188,21.5156 24.7656,21.875 Z " fill="#000000"/><text fill="#000000" font-family="sans-serif" font-size="14" lengthAdjust="spacing" textLength="38" x="36" y="31.7285">Add`1</text><rect fill="#FFFFFF" height="17.0938" style="stroke:#181818;stroke-width:1.0;stroke-dasharray:2.0,2.0;" width="9" x="82" y="7"/><text fill="#000000" font-family="sans-serif" font-size="12" font-style="italic" lengthAdjust="spacing" textLength="7" x="83" y="20.457">T</text><line style="stroke:#181818;stroke-width:0.5;" x1="8" x2="87" y1="42" y2="42"/><line style="stroke:#181818;stroke-width:0.5;" x1="8" x2="87" y1="50" y2="50"/></g><!--MD5=[b4d60113d5ab85a0239e6a95921f63b9]
class AddScoped`2--><g id="elem_AddScoped`2"><rect codeLine="3" fill="#F1F1F1" height="48" id="AddScoped`2" rx="2.5" ry="2.5" style="stroke:#181818;stroke-width:0.5;" width="153" x="123" y="10"/><ellipse cx="138" cy="26" fill="#ADD1B2" rx="11" ry="11" style="stroke:#181818;stroke-width:1.0;"/><path d="M140.7656,21.875 Q140.9219,21.6563 141.1094,21.5469 Q141.2969,21.4375 141.5156,21.4375 Q141.8906,21.4375 142.125,21.7031 Q142.3594,21.9531 142.3594,22.5625 L142.3594,24.0156 Q142.3594,24.625 142.125,24.8906 Q141.8906,25.1563 141.5156,25.1563 Q141.1719,25.1563 140.9688,24.9531 Q140.7656,24.7656 140.6563,24.25 Q140.6094,23.8906 140.4219,23.7031 Q140.0938,23.3281 139.4844,23.1094 Q138.875,22.8906 138.25,22.8906 Q137.4844,22.8906 136.8438,23.2188 Q136.2188,23.5469 135.7188,24.2969 Q135.2344,25.0469 135.2344,26.0781 L135.2344,27.1719 Q135.2344,28.4063 136.125,29.2344 Q137.0156,30.0469 138.6094,30.0469 Q139.5469,30.0469 140.2031,29.7969 Q140.5938,29.6406 141.0156,29.2031 Q141.2813,28.9375 141.4219,28.8594 Q141.5781,28.7813 141.7813,28.7813 Q142.1094,28.7813 142.3594,29.0469 Q142.625,29.2969 142.625,29.6406 Q142.625,29.9844 142.2813,30.3906 Q141.7813,30.9688 140.9844,31.2969 Q139.9063,31.75 138.6094,31.75 Q137.0938,31.75 135.8906,31.125 Q134.9063,30.625 134.2188,29.5625 Q133.5313,28.4844 133.5313,27.2031 L133.5313,26.0469 Q133.5313,24.7188 134.1406,23.5781 Q134.7656,22.4219 135.8594,21.8125 Q136.9531,21.1875 138.1875,21.1875 Q138.9219,21.1875 139.5625,21.3594 Q140.2188,21.5156 140.7656,21.875 Z " fill="#000000"/><text fill="#000000" font-family="sans-serif" font-size="14" lengthAdjust="spacing" textLength="86" x="152" y="31.7285">AddScoped`2</text><rect fill="#FFFFFF" height="17.0938" style="stroke:#181818;stroke-width:1.0;stroke-dasharray:2.0,2.0;" width="33" x="246" y="7"/><text fill="#000000" font-family="sans-serif" font-size="12" font-style="italic" lengthAdjust="spacing" textLength="31" x="247" y="20.457">T1,T2</text><line style="stroke:#181818;stroke-width:0.5;" x1="124" x2="275" y1="42" y2="42"/><line style="stroke:#181818;stroke-width:0.5;" x1="124" x2="275" y1="50" y2="50"/></g><!--MD5=[78603ef418b0a7a795b8da35c45cbcd0]
@startuml
class "Add`1"<T> {
}
class "AddScoped`2"<T1,T2> {
}
@enduml

PlantUML version 1.2022.7(Mon Aug 22 19:01:30 CEST 2022)
(GPL source distribution)
Java Runtime: OpenJDK Runtime Environment
JVM: OpenJDK 64-Bit Server VM
Default Encoding: Cp1252
Language: en
Country: US
--></g></svg>