<?xml version="1.0" encoding="UTF-8" standalone="no"?><svg xmlns="http://www.w3.org/2000/svg" xmlns:xlink="http://www.w3.org/1999/xlink" contentStyleType="text/css" height="222px" preserveAspectRatio="none" style="width:464px;height:222px;background:#FFFFFF;" version="1.1" viewBox="0 0 464 222" width="464px" zoomAndPan="magnify"><defs/><g><!--MD5=[9878be2e161685c2af42b541dee0842e]
class AuthController--><g id="elem_AuthController"><rect codeLine="1" fill="#F1F1F1" height="100.8281" id="AuthController" rx="2.5" ry="2.5" style="stroke:#181818;stroke-width:0.5;" width="450" x="7" y="115"/><ellipse cx="182.25" cy="131" fill="#ADD1B2" rx="11" ry="11" style="stroke:#181818;stroke-width:1.0;"/><path d="M185.0156,126.875 Q185.1719,126.6563 185.3594,126.5469 Q185.5469,126.4375 185.7656,126.4375 Q186.1406,126.4375 186.375,126.7031 Q186.6094,126.9531 186.6094,127.5625 L186.6094,129.0156 Q186.6094,129.625 186.375,129.8906 Q186.1406,130.1563 185.7656,130.1563 Q185.4219,130.1563 185.2188,129.9531 Q185.0156,129.7656 184.9063,129.25 Q184.8594,128.8906 184.6719,128.7031 Q184.3438,128.3281 183.7344,128.1094 Q183.125,127.8906 182.5,127.8906 Q181.7344,127.8906 181.0938,128.2188 Q180.4688,128.5469 179.9688,129.2969 Q179.4844,130.0469 179.4844,131.0781 L179.4844,132.1719 Q179.4844,133.4063 180.375,134.2344 Q181.2656,135.0469 182.8594,135.0469 Q183.7969,135.0469 184.4531,134.7969 Q184.8438,134.6406 185.2656,134.2031 Q185.5313,133.9375 185.6719,133.8594 Q185.8281,133.7813 186.0313,133.7813 Q186.3594,133.7813 186.6094,134.0469 Q186.875,134.2969 186.875,134.6406 Q186.875,134.9844 186.5313,135.3906 Q186.0313,135.9688 185.2344,136.2969 Q184.1563,136.75 182.8594,136.75 Q181.3438,136.75 180.1406,136.125 Q179.1563,135.625 178.4688,134.5625 Q177.7813,133.4844 177.7813,132.2031 L177.7813,131.0469 Q177.7813,129.7188 178.3906,128.5781 Q179.0156,127.4219 180.1094,126.8125 Q181.2031,126.1875 182.4375,126.1875 Q183.1719,126.1875 183.8125,126.3594 Q184.4688,126.5156 185.0156,126.875 Z " fill="#000000"/><text fill="#000000" font-family="sans-serif" font-size="14" lengthAdjust="spacing" textLength="91" x="202.75" y="136.7285">AuthController</text><line style="stroke:#181818;stroke-width:0.5;" x1="8" x2="456" y1="147" y2="147"/><line style="stroke:#181818;stroke-width:0.5;" x1="8" x2="456" y1="155" y2="155"/><ellipse cx="18" cy="169.3047" fill="#84BE84" rx="3" ry="3" style="stroke:#038048;stroke-width:1.0;"/><text fill="#000000" font-family="sans-serif" font-size="14" lengthAdjust="spacing" textLength="397" x="27" y="173.5332">AuthController(config:IConfiguration, authService:IAuthService)</text><ellipse cx="18" cy="186.9141" fill="#84BE84" rx="3" ry="3" style="stroke:#038048;stroke-width:1.0;"/><text fill="#000000" font-family="sans-serif" font-size="14" lengthAdjust="spacing" textLength="380" x="27" y="191.1426">«async» Login(userLoginDto:UserDto) : Task&lt;ActionResult&gt;</text><ellipse cx="18" cy="204.5234" fill="#84BE84" rx="3" ry="3" style="stroke:#038048;stroke-width:1.0;"/><text fill="#000000" font-family="sans-serif" font-size="14" lengthAdjust="spacing" textLength="424" x="27" y="208.752">«async» RegisterUser(userRegistration:User) : Task&lt;ActionResult&gt;</text></g><!--MD5=[4867a1bb6ec1ef487bf262ea43213ad2]
class ControllerBase--><g id="elem_ControllerBase"><rect fill="#F1F1F1" height="48" id="ControllerBase" rx="2.5" ry="2.5" style="stroke:#181818;stroke-width:0.5;" width="126" x="169" y="7"/><ellipse cx="184" cy="23" fill="#ADD1B2" rx="11" ry="11" style="stroke:#181818;stroke-width:1.0;"/><path d="M186.7656,18.875 Q186.9219,18.6563 187.1094,18.5469 Q187.2969,18.4375 187.5156,18.4375 Q187.8906,18.4375 188.125,18.7031 Q188.3594,18.9531 188.3594,19.5625 L188.3594,21.0156 Q188.3594,21.625 188.125,21.8906 Q187.8906,22.1563 187.5156,22.1563 Q187.1719,22.1563 186.9688,21.9531 Q186.7656,21.7656 186.6563,21.25 Q186.6094,20.8906 186.4219,20.7031 Q186.0938,20.3281 185.4844,20.1094 Q184.875,19.8906 184.25,19.8906 Q183.4844,19.8906 182.8438,20.2188 Q182.2188,20.5469 181.7188,21.2969 Q181.2344,22.0469 181.2344,23.0781 L181.2344,24.1719 Q181.2344,25.4063 182.125,26.2344 Q183.0156,27.0469 184.6094,27.0469 Q185.5469,27.0469 186.2031,26.7969 Q186.5938,26.6406 187.0156,26.2031 Q187.2813,25.9375 187.4219,25.8594 Q187.5781,25.7813 187.7813,25.7813 Q188.1094,25.7813 188.3594,26.0469 Q188.625,26.2969 188.625,26.6406 Q188.625,26.9844 188.2813,27.3906 Q187.7813,27.9688 186.9844,28.2969 Q185.9063,28.75 184.6094,28.75 Q183.0938,28.75 181.8906,28.125 Q180.9063,27.625 180.2188,26.5625 Q179.5313,25.4844 179.5313,24.2031 L179.5313,23.0469 Q179.5313,21.7188 180.1406,20.5781 Q180.7656,19.4219 181.8594,18.8125 Q182.9531,18.1875 184.1875,18.1875 Q184.9219,18.1875 185.5625,18.3594 Q186.2188,18.5156 186.7656,18.875 Z " fill="#000000"/><text fill="#000000" font-family="sans-serif" font-size="14" lengthAdjust="spacing" textLength="94" x="198" y="28.7285">ControllerBase</text><line style="stroke:#181818;stroke-width:0.5;" x1="170" x2="294" y1="39" y2="39"/><line style="stroke:#181818;stroke-width:0.5;" x1="170" x2="294" y1="47" y2="47"/></g><!--MD5=[12014699c638f4f8fcc7455cc8618817]
reverse link ControllerBase to AuthController--><g id="link_ControllerBase_AuthController"><path codeLine="6" d="M232,75.34 C232,87.95 232,101.82 232,114.8 " fill="none" id="ControllerBase-backto-AuthController" style="stroke:#181818;stroke-width:1.0;"/><polygon fill="none" points="225,75.08,232,55.08,239,75.08,225,75.08" style="stroke:#181818;stroke-width:1.0;"/></g><!--MD5=[fa6b012fae56e069bc4310a744f29626]
@startuml
class AuthController {
    + AuthController(config:IConfiguration, authService:IAuthService)
    + <<async>> Login(userLoginDto:UserDto) : Task<ActionResult>
    + <<async>> RegisterUser(userRegistration:User) : Task<ActionResult>
}
ControllerBase <|- - AuthController
@enduml

PlantUML version 1.2022.7(Mon Aug 22 19:01:30 CEST 2022)
(GPL source distribution)
Java Runtime: OpenJDK Runtime Environment
JVM: OpenJDK 64-Bit Server VM
Default Encoding: Cp1252
Language: en
Country: US
--></g></svg>