<?xml version="1.0" encoding="UTF-8" standalone="no"?><svg xmlns="http://www.w3.org/2000/svg" xmlns:xlink="http://www.w3.org/1999/xlink" contentStyleType="text/css" height="205px" preserveAspectRatio="none" style="width:297px;height:205px;background:#FFFFFF;" version="1.1" viewBox="0 0 297 205" width="297px" zoomAndPan="magnify"><defs/><g><!--MD5=[e98ccc93e4b8a8c95e305e577d1df263]
class PostNotFoundException--><g id="elem_PostNotFoundException"><rect codeLine="1" fill="#F1F1F1" height="83.2188" id="PostNotFoundException" rx="2.5" ry="2.5" style="stroke:#181818;stroke-width:0.5;" width="283" x="7" y="115"/><ellipse cx="68.75" cy="131" fill="#ADD1B2" rx="11" ry="11" style="stroke:#181818;stroke-width:1.0;"/><path d="M71.5156,126.875 Q71.6719,126.6563 71.8594,126.5469 Q72.0469,126.4375 72.2656,126.4375 Q72.6406,126.4375 72.875,126.7031 Q73.1094,126.9531 73.1094,127.5625 L73.1094,129.0156 Q73.1094,129.625 72.875,129.8906 Q72.6406,130.1563 72.2656,130.1563 Q71.9219,130.1563 71.7188,129.9531 Q71.5156,129.7656 71.4063,129.25 Q71.3594,128.8906 71.1719,128.7031 Q70.8438,128.3281 70.2344,128.1094 Q69.625,127.8906 69,127.8906 Q68.2344,127.8906 67.5938,128.2188 Q66.9688,128.5469 66.4688,129.2969 Q65.9844,130.0469 65.9844,131.0781 L65.9844,132.1719 Q65.9844,133.4063 66.875,134.2344 Q67.7656,135.0469 69.3594,135.0469 Q70.2969,135.0469 70.9531,134.7969 Q71.3438,134.6406 71.7656,134.2031 Q72.0313,133.9375 72.1719,133.8594 Q72.3281,133.7813 72.5313,133.7813 Q72.8594,133.7813 73.1094,134.0469 Q73.375,134.2969 73.375,134.6406 Q73.375,134.9844 73.0313,135.3906 Q72.5313,135.9688 71.7344,136.2969 Q70.6563,136.75 69.3594,136.75 Q67.8438,136.75 66.6406,136.125 Q65.6563,135.625 64.9688,134.5625 Q64.2813,133.4844 64.2813,132.2031 L64.2813,131.0469 Q64.2813,129.7188 64.8906,128.5781 Q65.5156,127.4219 66.6094,126.8125 Q67.7031,126.1875 68.9375,126.1875 Q69.6719,126.1875 70.3125,126.3594 Q70.9688,126.5156 71.5156,126.875 Z " fill="#000000"/><text fill="#000000" font-family="sans-serif" font-size="14" lengthAdjust="spacing" textLength="151" x="89.25" y="136.7285">PostNotFoundException</text><line style="stroke:#181818;stroke-width:0.5;" x1="8" x2="289" y1="147" y2="147"/><line style="stroke:#181818;stroke-width:0.5;" x1="8" x2="289" y1="155" y2="155"/><ellipse cx="18" cy="169.3047" fill="#84BE84" rx="3" ry="3" style="stroke:#038048;stroke-width:1.0;"/><text fill="#000000" font-family="sans-serif" font-size="14" lengthAdjust="spacing" textLength="161" x="27" y="173.5332">PostNotFoundException()</text><ellipse cx="18" cy="186.9141" fill="#84BE84" rx="3" ry="3" style="stroke:#038048;stroke-width:1.0;"/><text fill="#000000" font-family="sans-serif" font-size="14" lengthAdjust="spacing" textLength="257" x="27" y="191.1426">PostNotFoundException(message:string)</text></g><!--MD5=[8db60afef7a3447bbe27c5ed187fdac2]
class Exception--><g id="elem_Exception"><rect fill="#F1F1F1" height="48" id="Exception" rx="2.5" ry="2.5" style="stroke:#181818;stroke-width:0.5;" width="93" x="102" y="7"/><ellipse cx="117" cy="23" fill="#ADD1B2" rx="11" ry="11" style="stroke:#181818;stroke-width:1.0;"/><path d="M119.7656,18.875 Q119.9219,18.6563 120.1094,18.5469 Q120.2969,18.4375 120.5156,18.4375 Q120.8906,18.4375 121.125,18.7031 Q121.3594,18.9531 121.3594,19.5625 L121.3594,21.0156 Q121.3594,21.625 121.125,21.8906 Q120.8906,22.1563 120.5156,22.1563 Q120.1719,22.1563 119.9688,21.9531 Q119.7656,21.7656 119.6563,21.25 Q119.6094,20.8906 119.4219,20.7031 Q119.0938,20.3281 118.4844,20.1094 Q117.875,19.8906 117.25,19.8906 Q116.4844,19.8906 115.8438,20.2188 Q115.2188,20.5469 114.7188,21.2969 Q114.2344,22.0469 114.2344,23.0781 L114.2344,24.1719 Q114.2344,25.4063 115.125,26.2344 Q116.0156,27.0469 117.6094,27.0469 Q118.5469,27.0469 119.2031,26.7969 Q119.5938,26.6406 120.0156,26.2031 Q120.2813,25.9375 120.4219,25.8594 Q120.5781,25.7813 120.7813,25.7813 Q121.1094,25.7813 121.3594,26.0469 Q121.625,26.2969 121.625,26.6406 Q121.625,26.9844 121.2813,27.3906 Q120.7813,27.9688 119.9844,28.2969 Q118.9063,28.75 117.6094,28.75 Q116.0938,28.75 114.8906,28.125 Q113.9063,27.625 113.2188,26.5625 Q112.5313,25.4844 112.5313,24.2031 L112.5313,23.0469 Q112.5313,21.7188 113.1406,20.5781 Q113.7656,19.4219 114.8594,18.8125 Q115.9531,18.1875 117.1875,18.1875 Q117.9219,18.1875 118.5625,18.3594 Q119.2188,18.5156 119.7656,18.875 Z " fill="#000000"/><text fill="#000000" font-family="sans-serif" font-size="14" lengthAdjust="spacing" textLength="61" x="131" y="28.7285">Exception</text><line style="stroke:#181818;stroke-width:0.5;" x1="103" x2="194" y1="39" y2="39"/><line style="stroke:#181818;stroke-width:0.5;" x1="103" x2="194" y1="47" y2="47"/></g><!--MD5=[391a3ff1adc641559306b686d6f72a70]
reverse link Exception to PostNotFoundException--><g id="link_Exception_PostNotFoundException"><path codeLine="5" d="M148.5,75.31 C148.5,88.16 148.5,102.19 148.5,114.87 " fill="none" id="Exception-backto-PostNotFoundException" style="stroke:#181818;stroke-width:1.0;"/><polygon fill="none" points="141.5,75.23,148.5,55.23,155.5,75.23,141.5,75.23" style="stroke:#181818;stroke-width:1.0;"/></g><!--MD5=[bb25cdd4a156d48a371ba458173c777d]
@startuml
class PostNotFoundException {
    + PostNotFoundException()
    + PostNotFoundException(message:string)
}
Exception <|- - PostNotFoundException
@enduml

PlantUML version 1.2022.7(Mon Aug 22 19:01:30 CEST 2022)
(GPL source distribution)
Java Runtime: OpenJDK Runtime Environment
JVM: OpenJDK 64-Bit Server VM
Default Encoding: Cp1252
Language: en
Country: US
--></g></svg>