<?xml version="1.0" encoding="UTF-8" standalone="no"?><svg xmlns="http://www.w3.org/2000/svg" xmlns:xlink="http://www.w3.org/1999/xlink" contentStyleType="text/css" height="121px" preserveAspectRatio="none" style="width:93px;height:121px;background:#FFFFFF;" version="1.1" viewBox="0 0 93 121" width="93px" zoomAndPan="magnify"><defs/><g><!--MD5=[a3638c1e5b65d287ecad7f06f5c0f212]
class Role--><g id="elem_Role"><rect codeLine="1" fill="#F1F1F1" height="100.8281" id="Role" rx="2.5" ry="2.5" style="stroke:#181818;stroke-width:0.5;" width="72" x="7" y="7"/><ellipse cx="26.95" cy="23" fill="#EB937F" rx="11" ry="11" style="stroke:#181818;stroke-width:1.0;"/><path d="M25.8094,23.7969 L25.8094,26.2969 L30.1375,26.2969 L30.1375,25.375 Q30.1375,24.7656 30.3719,24.5 Q30.6219,24.2344 30.9969,24.2344 Q31.3719,24.2344 31.6063,24.5 Q31.8406,24.7656 31.8406,25.375 L31.8406,28 L23.8406,28 Q23.2156,28 22.95,27.7656 Q22.7,27.5313 22.7,27.1406 Q22.7,26.7656 22.9656,26.5313 Q23.2313,26.2969 23.8406,26.2969 L24.1063,26.2969 L24.1063,19.6406 L23.8406,19.6406 Q23.2156,19.6406 22.95,19.4063 Q22.7,19.1719 22.7,18.7813 Q22.7,18.4063 22.95,18.1719 Q23.2156,17.9375 23.8406,17.9375 L31.4656,17.9375 L31.4656,20.5313 Q31.4656,21.1406 31.2313,21.4063 Q31.0125,21.6563 30.6219,21.6563 Q30.2469,21.6563 30.0125,21.4063 Q29.7781,21.1406 29.7781,20.5313 L29.7781,19.6406 L25.8094,19.6406 L25.8094,22.0938 L27.2938,22.0938 Q27.2938,21.4375 27.4188,21.25 Q27.6844,20.8438 28.1531,20.8438 Q28.5281,20.8438 28.7625,21.1094 Q28.9969,21.3594 28.9969,21.9688 L28.9969,23.9375 Q28.9969,24.4844 28.8719,24.6719 Q28.6063,25.0625 28.1531,25.0625 Q27.6844,25.0625 27.4188,24.6563 Q27.2938,24.4688 27.2938,23.7969 L25.8094,23.7969 Z " fill="#000000"/><text fill="#000000" font-family="sans-serif" font-size="14" lengthAdjust="spacing" textLength="29" x="42.05" y="28.7285">Role</text><line style="stroke:#181818;stroke-width:0.5;" x1="8" x2="78" y1="39" y2="39"/><text fill="#000000" font-family="sans-serif" font-size="14" lengthAdjust="spacing" textLength="43" x="13" y="57.5332">Admin,</text><text fill="#000000" font-family="sans-serif" font-size="14" lengthAdjust="spacing" textLength="33" x="13" y="75.1426">User,</text><text fill="#000000" font-family="sans-serif" font-size="14" lengthAdjust="spacing" textLength="60" x="13" y="92.752">Manager,</text><line style="stroke:#181818;stroke-width:0.5;" x1="8" x2="78" y1="99.8281" y2="99.8281"/></g><!--MD5=[26f4502c7602c592475eee99445f61ff]
@startuml
enum Role {
    Admin,
    User,
    Manager,
}
@enduml

PlantUML version 1.2022.7(Mon Aug 22 19:01:30 CEST 2022)
(GPL source distribution)
Java Runtime: OpenJDK Runtime Environment
JVM: OpenJDK 64-Bit Server VM
Default Encoding: Cp1252
Language: en
Country: US
--></g></svg>