<?xml version="1.0" encoding="UTF-8" standalone="no"?><svg xmlns="http://www.w3.org/2000/svg" xmlns:xlink="http://www.w3.org/1999/xlink" contentStyleType="text/css" height="275px" preserveAspectRatio="none" style="width:347px;height:275px;background:#FFFFFF;" version="1.1" viewBox="0 0 347 275" width="347px" zoomAndPan="magnify"><defs/><g><!--MD5=[43046b2811d103cba6940a1623664b28]
class PostService--><g id="elem_PostService"><rect codeLine="1" fill="#F1F1F1" height="153.6563" id="PostService" rx="2.5" ry="2.5" style="stroke:#181818;stroke-width:0.5;" width="333" x="7" y="115"/><ellipse cx="131.75" cy="131" fill="#ADD1B2" rx="11" ry="11" style="stroke:#181818;stroke-width:1.0;"/><path d="M134.5156,126.875 Q134.6719,126.6563 134.8594,126.5469 Q135.0469,126.4375 135.2656,126.4375 Q135.6406,126.4375 135.875,126.7031 Q136.1094,126.9531 136.1094,127.5625 L136.1094,129.0156 Q136.1094,129.625 135.875,129.8906 Q135.6406,130.1563 135.2656,130.1563 Q134.9219,130.1563 134.7188,129.9531 Q134.5156,129.7656 134.4063,129.25 Q134.3594,128.8906 134.1719,128.7031 Q133.8438,128.3281 133.2344,128.1094 Q132.625,127.8906 132,127.8906 Q131.2344,127.8906 130.5938,128.2188 Q129.9688,128.5469 129.4688,129.2969 Q128.9844,130.0469 128.9844,131.0781 L128.9844,132.1719 Q128.9844,133.4063 129.875,134.2344 Q130.7656,135.0469 132.3594,135.0469 Q133.2969,135.0469 133.9531,134.7969 Q134.3438,134.6406 134.7656,134.2031 Q135.0313,133.9375 135.1719,133.8594 Q135.3281,133.7813 135.5313,133.7813 Q135.8594,133.7813 136.1094,134.0469 Q136.375,134.2969 136.375,134.6406 Q136.375,134.9844 136.0313,135.3906 Q135.5313,135.9688 134.7344,136.2969 Q133.6563,136.75 132.3594,136.75 Q130.8438,136.75 129.6406,136.125 Q128.6563,135.625 127.9688,134.5625 Q127.2813,133.4844 127.2813,132.2031 L127.2813,131.0469 Q127.2813,129.7188 127.8906,128.5781 Q128.5156,127.4219 129.6094,126.8125 Q130.7031,126.1875 131.9375,126.1875 Q132.6719,126.1875 133.3125,126.3594 Q133.9688,126.5156 134.5156,126.875 Z " fill="#000000"/><text fill="#000000" font-family="sans-serif" font-size="14" lengthAdjust="spacing" textLength="75" x="152.25" y="136.7285">PostService</text><line style="stroke:#181818;stroke-width:0.5;" x1="8" x2="339" y1="147" y2="147"/><line style="stroke:#181818;stroke-width:0.5;" x1="8" x2="339" y1="155" y2="155"/><ellipse cx="18" cy="169.3047" fill="#84BE84" rx="3" ry="3" style="stroke:#038048;stroke-width:1.0;"/><text fill="#000000" font-family="sans-serif" font-size="14" lengthAdjust="spacing" textLength="210" x="27" y="173.5332">PostService(httpClient:HttpClient)</text><ellipse cx="18" cy="186.9141" fill="#84BE84" rx="3" ry="3" style="stroke:#038048;stroke-width:1.0;"/><text fill="#000000" font-family="sans-serif" font-size="14" lengthAdjust="spacing" textLength="307" x="27" y="191.1426">«async» GetPosts() : Task&lt;IEnumerable&lt;Post&gt;&gt;</text><ellipse cx="18" cy="204.5234" fill="#84BE84" rx="3" ry="3" style="stroke:#038048;stroke-width:1.0;"/><text fill="#000000" font-family="sans-serif" font-size="14" lengthAdjust="spacing" textLength="243" x="27" y="208.752">«async» GetPost(id:int) : Task&lt;Post?&gt;</text><ellipse cx="18" cy="222.1328" fill="#84BE84" rx="3" ry="3" style="stroke:#038048;stroke-width:1.0;"/><text fill="#000000" font-family="sans-serif" font-size="14" lengthAdjust="spacing" textLength="262" x="27" y="226.3613">«async» CreatePost(post:PostDto) : Task</text><ellipse cx="18" cy="239.7422" fill="#84BE84" rx="3" ry="3" style="stroke:#038048;stroke-width:1.0;"/><text fill="#000000" font-family="sans-serif" font-size="14" lengthAdjust="spacing" textLength="209" x="27" y="243.9707">«async» DeletePost(id:int) : Task</text><ellipse cx="18" cy="257.3516" fill="#84BE84" rx="3" ry="3" style="stroke:#038048;stroke-width:1.0;"/><text fill="#000000" font-family="sans-serif" font-size="14" lengthAdjust="spacing" textLength="242" x="27" y="261.5801">«async» UpdatePost(post:Post) : Task</text></g><!--MD5=[6fd3d691bc4e27d55cad78cf914e777d]
class IPostService--><g id="elem_IPostService"><rect fill="#F1F1F1" height="48" id="IPostService" rx="2.5" ry="2.5" style="stroke:#181818;stroke-width:0.5;" width="110" x="118.5" y="7"/><ellipse cx="133.5" cy="23" fill="#ADD1B2" rx="11" ry="11" style="stroke:#181818;stroke-width:1.0;"/><path d="M136.2656,18.875 Q136.4219,18.6563 136.6094,18.5469 Q136.7969,18.4375 137.0156,18.4375 Q137.3906,18.4375 137.625,18.7031 Q137.8594,18.9531 137.8594,19.5625 L137.8594,21.0156 Q137.8594,21.625 137.625,21.8906 Q137.3906,22.1563 137.0156,22.1563 Q136.6719,22.1563 136.4688,21.9531 Q136.2656,21.7656 136.1563,21.25 Q136.1094,20.8906 135.9219,20.7031 Q135.5938,20.3281 134.9844,20.1094 Q134.375,19.8906 133.75,19.8906 Q132.9844,19.8906 132.3438,20.2188 Q131.7188,20.5469 131.2188,21.2969 Q130.7344,22.0469 130.7344,23.0781 L130.7344,24.1719 Q130.7344,25.4063 131.625,26.2344 Q132.5156,27.0469 134.1094,27.0469 Q135.0469,27.0469 135.7031,26.7969 Q136.0938,26.6406 136.5156,26.2031 Q136.7813,25.9375 136.9219,25.8594 Q137.0781,25.7813 137.2813,25.7813 Q137.6094,25.7813 137.8594,26.0469 Q138.125,26.2969 138.125,26.6406 Q138.125,26.9844 137.7813,27.3906 Q137.2813,27.9688 136.4844,28.2969 Q135.4063,28.75 134.1094,28.75 Q132.5938,28.75 131.3906,28.125 Q130.4063,27.625 129.7188,26.5625 Q129.0313,25.4844 129.0313,24.2031 L129.0313,23.0469 Q129.0313,21.7188 129.6406,20.5781 Q130.2656,19.4219 131.3594,18.8125 Q132.4531,18.1875 133.6875,18.1875 Q134.4219,18.1875 135.0625,18.3594 Q135.7188,18.5156 136.2656,18.875 Z " fill="#000000"/><text fill="#000000" font-family="sans-serif" font-size="14" lengthAdjust="spacing" textLength="78" x="147.5" y="28.7285">IPostService</text><line style="stroke:#181818;stroke-width:0.5;" x1="119.5" x2="227.5" y1="39" y2="39"/><line style="stroke:#181818;stroke-width:0.5;" x1="119.5" x2="227.5" y1="47" y2="47"/></g><!--MD5=[5c541c8eb3e0da24eb65438701caf01b]
reverse link IPostService to PostService--><g id="link_IPostService_PostService"><path codeLine="9" d="M173.5,75.21 C173.5,87.43 173.5,101.11 173.5,114.67 " fill="none" id="IPostService-backto-PostService" style="stroke:#181818;stroke-width:1.0;"/><polygon fill="none" points="166.5,75.12,173.5,55.12,180.5,75.12,166.5,75.12" style="stroke:#181818;stroke-width:1.0;"/></g><!--MD5=[c08a794c0aa2ac4dcc6c332dafacfbbe]
@startuml
class PostService {
    + PostService(httpClient:HttpClient)
    + <<async>> GetPosts() : Task<IEnumerable<Post>>
    + <<async>> GetPost(id:int) : Task<Post?>
    + <<async>> CreatePost(post:PostDto) : Task
    + <<async>> DeletePost(id:int) : Task
    + <<async>> UpdatePost(post:Post) : Task
}
IPostService <|- - PostService
@enduml

PlantUML version 1.2022.7(Mon Aug 22 19:01:30 CEST 2022)
(GPL source distribution)
Java Runtime: OpenJDK Runtime Environment
JVM: OpenJDK 64-Bit Server VM
Default Encoding: Cp1252
Language: en
Country: US
--></g></svg>