<?xml version="1.0" encoding="UTF-8" standalone="no"?><svg xmlns="http://www.w3.org/2000/svg" xmlns:xlink="http://www.w3.org/1999/xlink" contentStyleType="text/css" height="69px" preserveAspectRatio="none" style="width:113px;height:69px;background:#FFFFFF;" version="1.1" viewBox="0 0 113 69" width="113px" zoomAndPan="magnify"><defs/><g><!--MD5=[6b22b54f1b1c0cb32b65f55d2c4fc938]
class IUserDao--><g id="elem_IUserDao"><rect codeLine="1" fill="#F1F1F1" height="48" id="IUserDao" rx="2.5" ry="2.5" style="stroke:#181818;stroke-width:0.5;" width="92" x="7" y="7"/><ellipse cx="22" cy="23" fill="#B4A7E5" rx="11" ry="11" style="stroke:#181818;stroke-width:1.0;"/><path d="M22.9531,19.6406 L22.9531,26.2969 L24.6719,26.2969 Q25.2813,26.2969 25.5469,26.5313 Q25.8125,26.7656 25.8125,27.1563 Q25.8125,27.5313 25.5469,27.7656 Q25.2813,28 24.6719,28 L19.5313,28 Q18.9219,28 18.6563,27.7656 Q18.3906,27.5313 18.3906,27.1406 Q18.3906,26.7656 18.6563,26.5313 Q18.9219,26.2969 19.5313,26.2969 L21.25,26.2969 L21.25,19.6406 L19.5313,19.6406 Q18.9219,19.6406 18.6563,19.4063 Q18.3906,19.1719 18.3906,18.7813 Q18.3906,18.4063 18.6563,18.1719 Q18.9219,17.9375 19.5313,17.9375 L24.6719,17.9375 Q25.2813,17.9375 25.5469,18.1719 Q25.8125,18.4063 25.8125,18.7813 Q25.8125,19.1719 25.5469,19.4063 Q25.2813,19.6406 24.6719,19.6406 L22.9531,19.6406 Z " fill="#000000"/><text fill="#000000" font-family="sans-serif" font-size="14" font-style="italic" lengthAdjust="spacing" textLength="60" x="36" y="28.7285">IUserDao</text><line style="stroke:#181818;stroke-width:0.5;" x1="8" x2="98" y1="39" y2="39"/><line style="stroke:#181818;stroke-width:0.5;" x1="8" x2="98" y1="47" y2="47"/></g><!--MD5=[0bac58e0bf0d63efcc0c294f0b2575a0]
@startuml
interface IUserDao {
}
@enduml

PlantUML version 1.2022.7(Mon Aug 22 19:01:30 CEST 2022)
(GPL source distribution)
Java Runtime: OpenJDK Runtime Environment
JVM: OpenJDK 64-Bit Server VM
Default Encoding: Cp1252
Language: en
Country: US
--></g></svg>