<?xml version="1.0" encoding="UTF-8" standalone="no"?><svg xmlns="http://www.w3.org/2000/svg" xmlns:xlink="http://www.w3.org/1999/xlink" contentStyleType="text/css" height="174px" preserveAspectRatio="none" style="width:354px;height:174px;background:#FFFFFF;" version="1.1" viewBox="0 0 354 174" width="354px" zoomAndPan="magnify"><defs/><g><!--MD5=[40a6b601c2e5dbf3c923939c23ba4c8a]
class PostsController--><g id="elem_PostsController"><rect codeLine="1" fill="#F1F1F1" height="153.6563" id="PostsController" rx="2.5" ry="2.5" style="stroke:#181818;stroke-width:0.5;" width="333" x="7" y="7"/><ellipse cx="120.75" cy="23" fill="#ADD1B2" rx="11" ry="11" style="stroke:#181818;stroke-width:1.0;"/><path d="M123.5156,18.875 Q123.6719,18.6563 123.8594,18.5469 Q124.0469,18.4375 124.2656,18.4375 Q124.6406,18.4375 124.875,18.7031 Q125.1094,18.9531 125.1094,19.5625 L125.1094,21.0156 Q125.1094,21.625 124.875,21.8906 Q124.6406,22.1563 124.2656,22.1563 Q123.9219,22.1563 123.7188,21.9531 Q123.5156,21.7656 123.4063,21.25 Q123.3594,20.8906 123.1719,20.7031 Q122.8438,20.3281 122.2344,20.1094 Q121.625,19.8906 121,19.8906 Q120.2344,19.8906 119.5938,20.2188 Q118.9688,20.5469 118.4688,21.2969 Q117.9844,22.0469 117.9844,23.0781 L117.9844,24.1719 Q117.9844,25.4063 118.875,26.2344 Q119.7656,27.0469 121.3594,27.0469 Q122.2969,27.0469 122.9531,26.7969 Q123.3438,26.6406 123.7656,26.2031 Q124.0313,25.9375 124.1719,25.8594 Q124.3281,25.7813 124.5313,25.7813 Q124.8594,25.7813 125.1094,26.0469 Q125.375,26.2969 125.375,26.6406 Q125.375,26.9844 125.0313,27.3906 Q124.5313,27.9688 123.7344,28.2969 Q122.6563,28.75 121.3594,28.75 Q119.8438,28.75 118.6406,28.125 Q117.6563,27.625 116.9688,26.5625 Q116.2813,25.4844 116.2813,24.2031 L116.2813,23.0469 Q116.2813,21.7188 116.8906,20.5781 Q117.5156,19.4219 118.6094,18.8125 Q119.7031,18.1875 120.9375,18.1875 Q121.6719,18.1875 122.3125,18.3594 Q122.9688,18.5156 123.5156,18.875 Z " fill="#000000"/><text fill="#000000" font-family="sans-serif" font-size="14" lengthAdjust="spacing" textLength="97" x="141.25" y="28.7285">PostsController</text><line style="stroke:#181818;stroke-width:0.5;" x1="8" x2="339" y1="39" y2="39"/><line style="stroke:#181818;stroke-width:0.5;" x1="8" x2="339" y1="47" y2="47"/><ellipse cx="18" cy="61.3047" fill="#84BE84" rx="3" ry="3" style="stroke:#038048;stroke-width:1.0;"/><text fill="#000000" font-family="sans-serif" font-size="14" lengthAdjust="spacing" textLength="263" x="27" y="65.5332">PostsController(postService:IPostService)</text><ellipse cx="18" cy="78.9141" fill="#84BE84" rx="3" ry="3" style="stroke:#038048;stroke-width:1.0;"/><text fill="#000000" font-family="sans-serif" font-size="14" lengthAdjust="spacing" textLength="307" x="27" y="83.1426">«async» GetPosts() : Task&lt;IEnumerable&lt;Post&gt;&gt;</text><ellipse cx="18" cy="96.5234" fill="#84BE84" rx="3" ry="3" style="stroke:#038048;stroke-width:1.0;"/><text fill="#000000" font-family="sans-serif" font-size="14" lengthAdjust="spacing" textLength="235" x="27" y="100.752">«async» GetPost(id:int) : Task&lt;Post&gt;</text><ellipse cx="18" cy="114.1328" fill="#84BE84" rx="3" ry="3" style="stroke:#038048;stroke-width:1.0;"/><text fill="#000000" font-family="sans-serif" font-size="14" lengthAdjust="spacing" textLength="262" x="27" y="118.3613">«async» CreatePost(post:PostDto) : Task</text><ellipse cx="18" cy="131.7422" fill="#84BE84" rx="3" ry="3" style="stroke:#038048;stroke-width:1.0;"/><text fill="#000000" font-family="sans-serif" font-size="14" lengthAdjust="spacing" textLength="209" x="27" y="135.9707">«async» DeletePost(id:int) : Task</text><ellipse cx="18" cy="149.3516" fill="#84BE84" rx="3" ry="3" style="stroke:#038048;stroke-width:1.0;"/><text fill="#000000" font-family="sans-serif" font-size="14" lengthAdjust="spacing" textLength="242" x="27" y="153.5801">«async» UpdatePost(post:Post) : Task</text></g><!--MD5=[7fd8495b49f02d48f9e1c0c5ad8db1a9]
@startuml
class PostsController {
    + PostsController(postService:IPostService)
    + <<async>> GetPosts() : Task<IEnumerable<Post>>
    + <<async>> GetPost(id:int) : Task<Post>
    + <<async>> CreatePost(post:PostDto) : Task
    + <<async>> DeletePost(id:int) : Task
    + <<async>> UpdatePost(post:Post) : Task
}
@enduml

PlantUML version 1.2022.7(Mon Aug 22 19:01:30 CEST 2022)
(GPL source distribution)
Java Runtime: OpenJDK Runtime Environment
JVM: OpenJDK 64-Bit Server VM
Default Encoding: Cp1252
Language: en
Country: US
--></g></svg>