<?xml version="1.0" encoding="UTF-8" standalone="no"?><svg xmlns="http://www.w3.org/2000/svg" xmlns:xlink="http://www.w3.org/1999/xlink" contentStyleType="text/css" height="222px" preserveAspectRatio="none" style="width:486px;height:222px;background:#FFFFFF;" version="1.1" viewBox="0 0 486 222" width="486px" zoomAndPan="magnify"><defs/><g><!--MD5=[7cab1c7f36e27b5f8924cafe7acf77df]
class UserAlreadyExistsException--><g id="elem_UserAlreadyExistsException"><rect codeLine="1" fill="#F1F1F1" height="100.8281" id="UserAlreadyExistsException" rx="2.5" ry="2.5" style="stroke:#181818;stroke-width:0.5;" width="472" x="7" y="115"/><ellipse cx="151.75" cy="131" fill="#ADD1B2" rx="11" ry="11" style="stroke:#181818;stroke-width:1.0;"/><path d="M154.5156,126.875 Q154.6719,126.6563 154.8594,126.5469 Q155.0469,126.4375 155.2656,126.4375 Q155.6406,126.4375 155.875,126.7031 Q156.1094,126.9531 156.1094,127.5625 L156.1094,129.0156 Q156.1094,129.625 155.875,129.8906 Q155.6406,130.1563 155.2656,130.1563 Q154.9219,130.1563 154.7188,129.9531 Q154.5156,129.7656 154.4063,129.25 Q154.3594,128.8906 154.1719,128.7031 Q153.8438,128.3281 153.2344,128.1094 Q152.625,127.8906 152,127.8906 Q151.2344,127.8906 150.5938,128.2188 Q149.9688,128.5469 149.4688,129.2969 Q148.9844,130.0469 148.9844,131.0781 L148.9844,132.1719 Q148.9844,133.4063 149.875,134.2344 Q150.7656,135.0469 152.3594,135.0469 Q153.2969,135.0469 153.9531,134.7969 Q154.3438,134.6406 154.7656,134.2031 Q155.0313,133.9375 155.1719,133.8594 Q155.3281,133.7813 155.5313,133.7813 Q155.8594,133.7813 156.1094,134.0469 Q156.375,134.2969 156.375,134.6406 Q156.375,134.9844 156.0313,135.3906 Q155.5313,135.9688 154.7344,136.2969 Q153.6563,136.75 152.3594,136.75 Q150.8438,136.75 149.6406,136.125 Q148.6563,135.625 147.9688,134.5625 Q147.2813,133.4844 147.2813,132.2031 L147.2813,131.0469 Q147.2813,129.7188 147.8906,128.5781 Q148.5156,127.4219 149.6094,126.8125 Q150.7031,126.1875 151.9375,126.1875 Q152.6719,126.1875 153.3125,126.3594 Q153.9688,126.5156 154.5156,126.875 Z " fill="#000000"/><text fill="#000000" font-family="sans-serif" font-size="14" lengthAdjust="spacing" textLength="174" x="172.25" y="136.7285">UserAlreadyExistsException</text><line style="stroke:#181818;stroke-width:0.5;" x1="8" x2="478" y1="147" y2="147"/><line style="stroke:#181818;stroke-width:0.5;" x1="8" x2="478" y1="155" y2="155"/><ellipse cx="18" cy="169.3047" fill="#84BE84" rx="3" ry="3" style="stroke:#038048;stroke-width:1.0;"/><text fill="#000000" font-family="sans-serif" font-size="14" lengthAdjust="spacing" textLength="184" x="27" y="173.5332">UserAlreadyExistsException()</text><ellipse cx="18" cy="186.9141" fill="#84BE84" rx="3" ry="3" style="stroke:#038048;stroke-width:1.0;"/><text fill="#000000" font-family="sans-serif" font-size="14" lengthAdjust="spacing" textLength="280" x="27" y="191.1426">UserAlreadyExistsException(message:string)</text><ellipse cx="18" cy="204.5234" fill="#84BE84" rx="3" ry="3" style="stroke:#038048;stroke-width:1.0;"/><text fill="#000000" font-family="sans-serif" font-size="14" lengthAdjust="spacing" textLength="446" x="27" y="208.752">UserAlreadyExistsException(message:string, innerException:Exception)</text></g><!--MD5=[8db60afef7a3447bbe27c5ed187fdac2]
class Exception--><g id="elem_Exception"><rect fill="#F1F1F1" height="48" id="Exception" rx="2.5" ry="2.5" style="stroke:#181818;stroke-width:0.5;" width="93" x="196.5" y="7"/><ellipse cx="211.5" cy="23" fill="#ADD1B2" rx="11" ry="11" style="stroke:#181818;stroke-width:1.0;"/><path d="M214.2656,18.875 Q214.4219,18.6563 214.6094,18.5469 Q214.7969,18.4375 215.0156,18.4375 Q215.3906,18.4375 215.625,18.7031 Q215.8594,18.9531 215.8594,19.5625 L215.8594,21.0156 Q215.8594,21.625 215.625,21.8906 Q215.3906,22.1563 215.0156,22.1563 Q214.6719,22.1563 214.4688,21.9531 Q214.2656,21.7656 214.1563,21.25 Q214.1094,20.8906 213.9219,20.7031 Q213.5938,20.3281 212.9844,20.1094 Q212.375,19.8906 211.75,19.8906 Q210.9844,19.8906 210.3438,20.2188 Q209.7188,20.5469 209.2188,21.2969 Q208.7344,22.0469 208.7344,23.0781 L208.7344,24.1719 Q208.7344,25.4063 209.625,26.2344 Q210.5156,27.0469 212.1094,27.0469 Q213.0469,27.0469 213.7031,26.7969 Q214.0938,26.6406 214.5156,26.2031 Q214.7813,25.9375 214.9219,25.8594 Q215.0781,25.7813 215.2813,25.7813 Q215.6094,25.7813 215.8594,26.0469 Q216.125,26.2969 216.125,26.6406 Q216.125,26.9844 215.7813,27.3906 Q215.2813,27.9688 214.4844,28.2969 Q213.4063,28.75 212.1094,28.75 Q210.5938,28.75 209.3906,28.125 Q208.4063,27.625 207.7188,26.5625 Q207.0313,25.4844 207.0313,24.2031 L207.0313,23.0469 Q207.0313,21.7188 207.6406,20.5781 Q208.2656,19.4219 209.3594,18.8125 Q210.4531,18.1875 211.6875,18.1875 Q212.4219,18.1875 213.0625,18.3594 Q213.7188,18.5156 214.2656,18.875 Z " fill="#000000"/><text fill="#000000" font-family="sans-serif" font-size="14" lengthAdjust="spacing" textLength="61" x="225.5" y="28.7285">Exception</text><line style="stroke:#181818;stroke-width:0.5;" x1="197.5" x2="288.5" y1="39" y2="39"/><line style="stroke:#181818;stroke-width:0.5;" x1="197.5" x2="288.5" y1="47" y2="47"/></g><!--MD5=[4c3973c72f65b175cca9614ea1fa09db]
reverse link Exception to UserAlreadyExistsException--><g id="link_Exception_UserAlreadyExistsException"><path codeLine="6" d="M243,75.34 C243,87.95 243,101.82 243,114.8 " fill="none" id="Exception-backto-UserAlreadyExistsException" style="stroke:#181818;stroke-width:1.0;"/><polygon fill="none" points="236,75.08,243,55.08,250,75.08,236,75.08" style="stroke:#181818;stroke-width:1.0;"/></g><!--MD5=[fdfafe17feab04aaf875c77f1948fecb]
@startuml
class UserAlreadyExistsException {
    + UserAlreadyExistsException()
    + UserAlreadyExistsException(message:string)
    + UserAlreadyExistsException(message:string, innerException:Exception)
}
Exception <|- - UserAlreadyExistsException
@enduml

PlantUML version 1.2022.7(Mon Aug 22 19:01:30 CEST 2022)
(GPL source distribution)
Java Runtime: OpenJDK Runtime Environment
JVM: OpenJDK 64-Bit Server VM
Default Encoding: Cp1252
Language: en
Country: US
--></g></svg>