<?xml version="1.0" encoding="UTF-8" standalone="no"?><svg xmlns="http://www.w3.org/2000/svg" xmlns:xlink="http://www.w3.org/1999/xlink" contentStyleType="text/css" height="97px" preserveAspectRatio="none" style="width:336px;height:97px;background:#FFFFFF;" version="1.1" viewBox="0 0 336 97" width="336px" zoomAndPan="magnify"><defs/><g><!--MD5=[10d6446e216950aa2cb9c0a68ade69d5]
class AuthorizationPolicies--><g id="elem_AuthorizationPolicies"><rect codeLine="1" fill="#F1F1F1" height="76.3125" id="AuthorizationPolicies" rx="2.5" ry="2.5" style="stroke:#181818;stroke-width:0.5;" width="315" x="7" y="7"/><ellipse cx="95.25" cy="28.3516" fill="#ADD1B2" rx="11" ry="11" style="stroke:#181818;stroke-width:1.0;"/><path d="M98.0156,24.2266 Q98.1719,24.0078 98.3594,23.8984 Q98.5469,23.7891 98.7656,23.7891 Q99.1406,23.7891 99.375,24.0547 Q99.6094,24.3047 99.6094,24.9141 L99.6094,26.3672 Q99.6094,26.9766 99.375,27.2422 Q99.1406,27.5078 98.7656,27.5078 Q98.4219,27.5078 98.2188,27.3047 Q98.0156,27.1172 97.9063,26.6016 Q97.8594,26.2422 97.6719,26.0547 Q97.3438,25.6797 96.7344,25.4609 Q96.125,25.2422 95.5,25.2422 Q94.7344,25.2422 94.0938,25.5703 Q93.4688,25.8984 92.9688,26.6484 Q92.4844,27.3984 92.4844,28.4297 L92.4844,29.5234 Q92.4844,30.7578 93.375,31.5859 Q94.2656,32.3984 95.8594,32.3984 Q96.7969,32.3984 97.4531,32.1484 Q97.8438,31.9922 98.2656,31.5547 Q98.5313,31.2891 98.6719,31.2109 Q98.8281,31.1328 99.0313,31.1328 Q99.3594,31.1328 99.6094,31.3984 Q99.875,31.6484 99.875,31.9922 Q99.875,32.3359 99.5313,32.7422 Q99.0313,33.3203 98.2344,33.6484 Q97.1563,34.1016 95.8594,34.1016 Q94.3438,34.1016 93.1406,33.4766 Q92.1563,32.9766 91.4688,31.9141 Q90.7813,30.8359 90.7813,29.5547 L90.7813,28.3984 Q90.7813,27.0703 91.3906,25.9297 Q92.0156,24.7734 93.1094,24.1641 Q94.2031,23.5391 95.4375,23.5391 Q96.1719,23.5391 96.8125,23.7109 Q97.4688,23.8672 98.0156,24.2266 Z " fill="#000000"/><text fill="#000000" font-family="sans-serif" font-size="12" font-style="italic" lengthAdjust="spacing" textLength="42" x="159.75" y="24.457">«static»</text><text fill="#000000" font-family="sans-serif" font-size="14" lengthAdjust="spacing" textLength="130" x="115.75" y="41.627">AuthorizationPolicies</text><line style="stroke:#181818;stroke-width:0.5;" x1="8" x2="321" y1="49.7031" y2="49.7031"/><line style="stroke:#181818;stroke-width:0.5;" x1="8" x2="321" y1="57.7031" y2="57.7031"/><ellipse cx="18" cy="72.0078" fill="#84BE84" rx="3" ry="3" style="stroke:#038048;stroke-width:1.0;"/><text fill="#000000" font-family="sans-serif" font-size="14" lengthAdjust="spacing" text-decoration="underline" textLength="289" x="27" y="76.2363">AddPolicies(services:IServiceCollection) : void</text></g><!--MD5=[b03afa711bd9091edcaa57f2db94357b]
@startuml
class AuthorizationPolicies <<static>> {
    + {static} AddPolicies(services:IServiceCollection) : void
}
@enduml

PlantUML version 1.2022.7(Mon Aug 22 19:01:30 CEST 2022)
(GPL source distribution)
Java Runtime: OpenJDK Runtime Environment
JVM: OpenJDK 64-Bit Server VM
Default Encoding: Cp1252
Language: en
Country: US
--></g></svg>