<?xml version="1.0" encoding="UTF-8" standalone="no"?><svg xmlns="http://www.w3.org/2000/svg" xmlns:xlink="http://www.w3.org/1999/xlink" contentStyleType="text/css" height="258px" preserveAspectRatio="none" style="width:231px;height:258px;background:#FFFFFF;" version="1.1" viewBox="0 0 231 258" width="231px" zoomAndPan="magnify"><defs/><g><!--MD5=[3fd616f346a44cd59a91eb10b19e157c]
class User--><g id="elem_User"><rect codeLine="1" fill="#F1F1F1" height="136.0469" id="User" rx="2.5" ry="2.5" style="stroke:#181818;stroke-width:0.5;" width="217" x="7" y="7"/><ellipse cx="96.75" cy="23" fill="#ADD1B2" rx="11" ry="11" style="stroke:#181818;stroke-width:1.0;"/><path d="M99.5156,18.875 Q99.6719,18.6563 99.8594,18.5469 Q100.0469,18.4375 100.2656,18.4375 Q100.6406,18.4375 100.875,18.7031 Q101.1094,18.9531 101.1094,19.5625 L101.1094,21.0156 Q101.1094,21.625 100.875,21.8906 Q100.6406,22.1563 100.2656,22.1563 Q99.9219,22.1563 99.7188,21.9531 Q99.5156,21.7656 99.4063,21.25 Q99.3594,20.8906 99.1719,20.7031 Q98.8438,20.3281 98.2344,20.1094 Q97.625,19.8906 97,19.8906 Q96.2344,19.8906 95.5938,20.2188 Q94.9688,20.5469 94.4688,21.2969 Q93.9844,22.0469 93.9844,23.0781 L93.9844,24.1719 Q93.9844,25.4063 94.875,26.2344 Q95.7656,27.0469 97.3594,27.0469 Q98.2969,27.0469 98.9531,26.7969 Q99.3438,26.6406 99.7656,26.2031 Q100.0313,25.9375 100.1719,25.8594 Q100.3281,25.7813 100.5313,25.7813 Q100.8594,25.7813 101.1094,26.0469 Q101.375,26.2969 101.375,26.6406 Q101.375,26.9844 101.0313,27.3906 Q100.5313,27.9688 99.7344,28.2969 Q98.6563,28.75 97.3594,28.75 Q95.8438,28.75 94.6406,28.125 Q93.6563,27.625 92.9688,26.5625 Q92.2813,25.4844 92.2813,24.2031 L92.2813,23.0469 Q92.2813,21.7188 92.8906,20.5781 Q93.5156,19.4219 94.6094,18.8125 Q95.7031,18.1875 96.9375,18.1875 Q97.6719,18.1875 98.3125,18.3594 Q98.9688,18.5156 99.5156,18.875 Z " fill="#000000"/><text fill="#000000" font-family="sans-serif" font-size="14" lengthAdjust="spacing" textLength="29" x="117.25" y="28.7285">User</text><line style="stroke:#181818;stroke-width:0.5;" x1="8" x2="223" y1="39" y2="39"/><ellipse cx="18" cy="53.3047" fill="none" rx="3" ry="3" style="stroke:#038048;stroke-width:1.0;"/><text fill="#000000" font-family="sans-serif" font-size="14" lengthAdjust="spacing" textLength="190" x="27" y="57.5332">Username : string «get» «set»</text><ellipse cx="18" cy="70.9141" fill="none" rx="3" ry="3" style="stroke:#038048;stroke-width:1.0;"/><text fill="#000000" font-family="sans-serif" font-size="14" lengthAdjust="spacing" textLength="187" x="27" y="75.1426">Password : string «get» «set»</text><ellipse cx="18" cy="88.5234" fill="none" rx="3" ry="3" style="stroke:#038048;stroke-width:1.0;"/><text fill="#000000" font-family="sans-serif" font-size="14" lengthAdjust="spacing" textLength="160" x="27" y="92.752">Email : string «get» «set»</text><ellipse cx="18" cy="106.1328" fill="none" rx="3" ry="3" style="stroke:#038048;stroke-width:1.0;"/><text fill="#000000" font-family="sans-serif" font-size="14" lengthAdjust="spacing" textLength="174" x="27" y="110.3613">Domain : string «get» «set»</text><ellipse cx="18" cy="123.7422" fill="none" rx="3" ry="3" style="stroke:#038048;stroke-width:1.0;"/><text fill="#000000" font-family="sans-serif" font-size="14" lengthAdjust="spacing" textLength="191" x="27" y="127.9707">SecurityLevel : int «get» «set»</text><line style="stroke:#181818;stroke-width:0.5;" x1="8" x2="223" y1="135.0469" y2="135.0469"/></g><!--MD5=[a3638c1e5b65d287ecad7f06f5c0f212]
class Role--><g id="elem_Role"><rect fill="#F1F1F1" height="48" id="Role" rx="2.5" ry="2.5" style="stroke:#181818;stroke-width:0.5;" width="61" x="85" y="203"/><ellipse cx="100" cy="219" fill="#ADD1B2" rx="11" ry="11" style="stroke:#181818;stroke-width:1.0;"/><path d="M102.7656,214.875 Q102.9219,214.6563 103.1094,214.5469 Q103.2969,214.4375 103.5156,214.4375 Q103.8906,214.4375 104.125,214.7031 Q104.3594,214.9531 104.3594,215.5625 L104.3594,217.0156 Q104.3594,217.625 104.125,217.8906 Q103.8906,218.1563 103.5156,218.1563 Q103.1719,218.1563 102.9688,217.9531 Q102.7656,217.7656 102.6563,217.25 Q102.6094,216.8906 102.4219,216.7031 Q102.0938,216.3281 101.4844,216.1094 Q100.875,215.8906 100.25,215.8906 Q99.4844,215.8906 98.8438,216.2188 Q98.2188,216.5469 97.7188,217.2969 Q97.2344,218.0469 97.2344,219.0781 L97.2344,220.1719 Q97.2344,221.4063 98.125,222.2344 Q99.0156,223.0469 100.6094,223.0469 Q101.5469,223.0469 102.2031,222.7969 Q102.5938,222.6406 103.0156,222.2031 Q103.2813,221.9375 103.4219,221.8594 Q103.5781,221.7813 103.7813,221.7813 Q104.1094,221.7813 104.3594,222.0469 Q104.625,222.2969 104.625,222.6406 Q104.625,222.9844 104.2813,223.3906 Q103.7813,223.9688 102.9844,224.2969 Q101.9063,224.75 100.6094,224.75 Q99.0938,224.75 97.8906,224.125 Q96.9063,223.625 96.2188,222.5625 Q95.5313,221.4844 95.5313,220.2031 L95.5313,219.0469 Q95.5313,217.7188 96.1406,216.5781 Q96.7656,215.4219 97.8594,214.8125 Q98.9531,214.1875 100.1875,214.1875 Q100.9219,214.1875 101.5625,214.3594 Q102.2188,214.5156 102.7656,214.875 Z " fill="#000000"/><text fill="#000000" font-family="sans-serif" font-size="14" lengthAdjust="spacing" textLength="29" x="114" y="224.7285">Role</text><line style="stroke:#181818;stroke-width:0.5;" x1="86" x2="145" y1="235" y2="235"/><line style="stroke:#181818;stroke-width:0.5;" x1="86" x2="145" y1="243" y2="243"/></g><!--MD5=[70c37dc9bfbc8656942103c36f1181e4]
link User to Role--><g id="link_User_Role"><path codeLine="8" d="M115.5,143.1 C115.5,162.31 115.5,182.21 115.5,197.69 " fill="none" id="User-to-Role" style="stroke:#181818;stroke-width:1.0;"/><polygon fill="#181818" points="115.5,202.77,119.5,193.77,115.5,197.77,111.5,193.77,115.5,202.77" style="stroke:#181818;stroke-width:1.0;"/><text fill="#000000" font-family="sans-serif" font-size="13" lengthAdjust="spacing" textLength="26" x="86.1688" y="192.0512">Role</text></g><!--MD5=[25a5504c72b4ffc7cf22eea66f58f8fb]
@startuml
class User {
    + Username : string <<get>> <<set>>
    + Password : string <<get>> <<set>>
    + Email : string <<get>> <<set>>
    + Domain : string <<get>> <<set>>
    + SecurityLevel : int <<get>> <<set>>
}
User - -> "Role" Role
@enduml

PlantUML version 1.2022.7(Mon Aug 22 19:01:30 CEST 2022)
(GPL source distribution)
Java Runtime: OpenJDK Runtime Environment
JVM: OpenJDK 64-Bit Server VM
Default Encoding: Cp1252
Language: en
Country: US
--></g></svg>