<?xml version="1.0" encoding="UTF-8" standalone="no"?><svg xmlns="http://www.w3.org/2000/svg" xmlns:xlink="http://www.w3.org/1999/xlink" contentStyleType="text/css" height="97px" preserveAspectRatio="none" style="width:340px;height:97px;background:#FFFFFF;" version="1.1" viewBox="0 0 340 97" width="340px" zoomAndPan="magnify"><defs/><g><!--MD5=[93fb4fef63dba703dd88c6ea54dd0f5a]
class PostDto--><g id="elem_PostDto"><rect codeLine="1" fill="#F1F1F1" height="83.2188" id="PostDto" rx="2.5" ry="2.5" style="stroke:#181818;stroke-width:0.5;" width="198" x="7" y="7"/><ellipse cx="76.75" cy="23" fill="#ADD1B2" rx="11" ry="11" style="stroke:#181818;stroke-width:1.0;"/><path d="M79.5156,18.875 Q79.6719,18.6563 79.8594,18.5469 Q80.0469,18.4375 80.2656,18.4375 Q80.6406,18.4375 80.875,18.7031 Q81.1094,18.9531 81.1094,19.5625 L81.1094,21.0156 Q81.1094,21.625 80.875,21.8906 Q80.6406,22.1563 80.2656,22.1563 Q79.9219,22.1563 79.7188,21.9531 Q79.5156,21.7656 79.4063,21.25 Q79.3594,20.8906 79.1719,20.7031 Q78.8438,20.3281 78.2344,20.1094 Q77.625,19.8906 77,19.8906 Q76.2344,19.8906 75.5938,20.2188 Q74.9688,20.5469 74.4688,21.2969 Q73.9844,22.0469 73.9844,23.0781 L73.9844,24.1719 Q73.9844,25.4063 74.875,26.2344 Q75.7656,27.0469 77.3594,27.0469 Q78.2969,27.0469 78.9531,26.7969 Q79.3438,26.6406 79.7656,26.2031 Q80.0313,25.9375 80.1719,25.8594 Q80.3281,25.7813 80.5313,25.7813 Q80.8594,25.7813 81.1094,26.0469 Q81.375,26.2969 81.375,26.6406 Q81.375,26.9844 81.0313,27.3906 Q80.5313,27.9688 79.7344,28.2969 Q78.6563,28.75 77.3594,28.75 Q75.8438,28.75 74.6406,28.125 Q73.6563,27.625 72.9688,26.5625 Q72.2813,25.4844 72.2813,24.2031 L72.2813,23.0469 Q72.2813,21.7188 72.8906,20.5781 Q73.5156,19.4219 74.6094,18.8125 Q75.7031,18.1875 76.9375,18.1875 Q77.6719,18.1875 78.3125,18.3594 Q78.9688,18.5156 79.5156,18.875 Z " fill="#000000"/><text fill="#000000" font-family="sans-serif" font-size="14" lengthAdjust="spacing" textLength="50" x="97.25" y="28.7285">PostDto</text><line style="stroke:#181818;stroke-width:0.5;" x1="8" x2="204" y1="39" y2="39"/><ellipse cx="18" cy="53.3047" fill="none" rx="3" ry="3" style="stroke:#038048;stroke-width:1.0;"/><text fill="#000000" font-family="sans-serif" font-size="14" lengthAdjust="spacing" textLength="172" x="27" y="57.5332">Header : string «get» «set»</text><ellipse cx="18" cy="70.9141" fill="none" rx="3" ry="3" style="stroke:#038048;stroke-width:1.0;"/><text fill="#000000" font-family="sans-serif" font-size="14" lengthAdjust="spacing" textLength="158" x="27" y="75.1426">Body : string «get» «set»</text><line style="stroke:#181818;stroke-width:0.5;" x1="8" x2="204" y1="82.2188" y2="82.2188"/></g><!--MD5=[20ddef7090025b04fb973268620c0974]
class DateTime--><g id="elem_DateTime"><rect fill="#F1F1F1" height="48" id="DateTime" rx="2.5" ry="2.5" style="stroke:#181818;stroke-width:0.5;" width="93" x="240.5" y="24.5"/><ellipse cx="255.5" cy="40.5" fill="#ADD1B2" rx="11" ry="11" style="stroke:#181818;stroke-width:1.0;"/><path d="M258.2656,36.375 Q258.4219,36.1563 258.6094,36.0469 Q258.7969,35.9375 259.0156,35.9375 Q259.3906,35.9375 259.625,36.2031 Q259.8594,36.4531 259.8594,37.0625 L259.8594,38.5156 Q259.8594,39.125 259.625,39.3906 Q259.3906,39.6563 259.0156,39.6563 Q258.6719,39.6563 258.4688,39.4531 Q258.2656,39.2656 258.1563,38.75 Q258.1094,38.3906 257.9219,38.2031 Q257.5938,37.8281 256.9844,37.6094 Q256.375,37.3906 255.75,37.3906 Q254.9844,37.3906 254.3438,37.7188 Q253.7188,38.0469 253.2188,38.7969 Q252.7344,39.5469 252.7344,40.5781 L252.7344,41.6719 Q252.7344,42.9063 253.625,43.7344 Q254.5156,44.5469 256.1094,44.5469 Q257.0469,44.5469 257.7031,44.2969 Q258.0938,44.1406 258.5156,43.7031 Q258.7813,43.4375 258.9219,43.3594 Q259.0781,43.2813 259.2813,43.2813 Q259.6094,43.2813 259.8594,43.5469 Q260.125,43.7969 260.125,44.1406 Q260.125,44.4844 259.7813,44.8906 Q259.2813,45.4688 258.4844,45.7969 Q257.4063,46.25 256.1094,46.25 Q254.5938,46.25 253.3906,45.625 Q252.4063,45.125 251.7188,44.0625 Q251.0313,42.9844 251.0313,41.7031 L251.0313,40.5469 Q251.0313,39.2188 251.6406,38.0781 Q252.2656,36.9219 253.3594,36.3125 Q254.4531,35.6875 255.6875,35.6875 Q256.4219,35.6875 257.0625,35.8594 Q257.7188,36.0156 258.2656,36.375 Z " fill="#000000"/><text fill="#000000" font-family="sans-serif" font-size="14" lengthAdjust="spacing" textLength="61" x="269.5" y="46.2285">DateTime</text><line style="stroke:#181818;stroke-width:0.5;" x1="241.5" x2="332.5" y1="56.5" y2="56.5"/><line style="stroke:#181818;stroke-width:0.5;" x1="241.5" x2="332.5" y1="64.5" y2="64.5"/></g><!--MD5=[a405e4f68d6b5b7e6742c141f9e6057b]
link PostDto to DateTime--><g id="link_PostDto_DateTime"><path codeLine="5" d="M217.34,48.5 C217.34,48.5 224.44,48.5 227.41,48.5 " fill="none" id="PostDto-DateTime" style="stroke:#181818;stroke-width:1.0;"/><polygon fill="#181818" points="240.43,48.5,231.43,44.5,235.43,48.5,231.43,52.5,240.43,48.5" style="stroke:#181818;stroke-width:1.0;"/><line style="stroke:#181818;stroke-width:1.0;" x1="235.43" x2="227.43" y1="48.5" y2="48.5"/><polygon fill="none" points="205.34,48.5,211.34,52.5,217.34,48.5,211.34,44.5,205.34,48.5" style="stroke:#181818;stroke-width:1.0;"/><text fill="#000000" font-family="sans-serif" font-size="13" lengthAdjust="spacing" textLength="58" x="174.3751" y="34.7793">CreatedAt</text></g><!--MD5=[3161976edd7597f25fb23f18ea628112]
@startuml
class PostDto {
    + Header : string <<get>> <<set>>
    + Body : string <<get>> <<set>>
}
PostDto o-> "CreatedAt" DateTime
@enduml

PlantUML version 1.2022.7(Mon Aug 22 19:01:30 CEST 2022)
(GPL source distribution)
Java Runtime: OpenJDK Runtime Environment
JVM: OpenJDK 64-Bit Server VM
Default Encoding: Cp1252
Language: en
Country: US
--></g></svg>