<?xml version="1.0" encoding="UTF-8" standalone="no"?><svg xmlns="http://www.w3.org/2000/svg" xmlns:xlink="http://www.w3.org/1999/xlink" contentStyleType="text/css" height="104px" preserveAspectRatio="none" style="width:236px;height:104px;background:#FFFFFF;" version="1.1" viewBox="0 0 236 104" width="236px" zoomAndPan="magnify"><defs/><g><!--MD5=[940c7e530b78c87925d59267e5d9a172]
class UserLoginDto--><g id="elem_UserLoginDto"><rect codeLine="1" fill="#F1F1F1" height="83.2188" id="UserLoginDto" rx="2.5" ry="2.5" style="stroke:#181818;stroke-width:0.5;" width="215" x="7" y="7"/><ellipse cx="67.25" cy="23" fill="#ADD1B2" rx="11" ry="11" style="stroke:#181818;stroke-width:1.0;"/><path d="M70.0156,18.875 Q70.1719,18.6563 70.3594,18.5469 Q70.5469,18.4375 70.7656,18.4375 Q71.1406,18.4375 71.375,18.7031 Q71.6094,18.9531 71.6094,19.5625 L71.6094,21.0156 Q71.6094,21.625 71.375,21.8906 Q71.1406,22.1563 70.7656,22.1563 Q70.4219,22.1563 70.2188,21.9531 Q70.0156,21.7656 69.9063,21.25 Q69.8594,20.8906 69.6719,20.7031 Q69.3438,20.3281 68.7344,20.1094 Q68.125,19.8906 67.5,19.8906 Q66.7344,19.8906 66.0938,20.2188 Q65.4688,20.5469 64.9688,21.2969 Q64.4844,22.0469 64.4844,23.0781 L64.4844,24.1719 Q64.4844,25.4063 65.375,26.2344 Q66.2656,27.0469 67.8594,27.0469 Q68.7969,27.0469 69.4531,26.7969 Q69.8438,26.6406 70.2656,26.2031 Q70.5313,25.9375 70.6719,25.8594 Q70.8281,25.7813 71.0313,25.7813 Q71.3594,25.7813 71.6094,26.0469 Q71.875,26.2969 71.875,26.6406 Q71.875,26.9844 71.5313,27.3906 Q71.0313,27.9688 70.2344,28.2969 Q69.1563,28.75 67.8594,28.75 Q66.3438,28.75 65.1406,28.125 Q64.1563,27.625 63.4688,26.5625 Q62.7813,25.4844 62.7813,24.2031 L62.7813,23.0469 Q62.7813,21.7188 63.3906,20.5781 Q64.0156,19.4219 65.1094,18.8125 Q66.2031,18.1875 67.4375,18.1875 Q68.1719,18.1875 68.8125,18.3594 Q69.4688,18.5156 70.0156,18.875 Z " fill="#000000"/><text fill="#000000" font-family="sans-serif" font-size="14" lengthAdjust="spacing" textLength="86" x="87.75" y="28.7285">UserLoginDto</text><line style="stroke:#181818;stroke-width:0.5;" x1="8" x2="221" y1="39" y2="39"/><ellipse cx="18" cy="53.3047" fill="none" rx="3" ry="3" style="stroke:#038048;stroke-width:1.0;"/><text fill="#000000" font-family="sans-serif" font-size="14" lengthAdjust="spacing" textLength="189" x="27" y="57.5332">Username : string «get» «init»</text><ellipse cx="18" cy="70.9141" fill="none" rx="3" ry="3" style="stroke:#038048;stroke-width:1.0;"/><text fill="#000000" font-family="sans-serif" font-size="14" lengthAdjust="spacing" textLength="186" x="27" y="75.1426">Password : string «get» «init»</text><line style="stroke:#181818;stroke-width:0.5;" x1="8" x2="221" y1="82.2188" y2="82.2188"/></g><!--MD5=[695eaca765b072664e540339aec7f5ba]
@startuml
class UserLoginDto {
    + Username : string <<get>> <<init>>
    + Password : string <<get>> <<init>>
}
@enduml

PlantUML version 1.2022.7(Mon Aug 22 19:01:30 CEST 2022)
(GPL source distribution)
Java Runtime: OpenJDK Runtime Environment
JVM: OpenJDK 64-Bit Server VM
Default Encoding: Cp1252
Language: en
Country: US
--></g></svg>