<?xml version="1.0" encoding="UTF-8" standalone="no"?><svg xmlns="http://www.w3.org/2000/svg" xmlns:xlink="http://www.w3.org/1999/xlink" contentStyleType="text/css" height="205px" preserveAspectRatio="none" style="width:545px;height:205px;background:#FFFFFF;" version="1.1" viewBox="0 0 545 205" width="545px" zoomAndPan="magnify"><defs/><g><!--MD5=[b05222612fa6428c8fdf1d5ac077f8e1]
class CustomAuthProvider--><g id="elem_CustomAuthProvider"><rect codeLine="1" fill="#F1F1F1" height="83.2188" id="CustomAuthProvider" rx="2.5" ry="2.5" style="stroke:#181818;stroke-width:0.5;" width="531" x="7" y="115"/><ellipse cx="203.25" cy="131" fill="#ADD1B2" rx="11" ry="11" style="stroke:#181818;stroke-width:1.0;"/><path d="M206.0156,126.875 Q206.1719,126.6563 206.3594,126.5469 Q206.5469,126.4375 206.7656,126.4375 Q207.1406,126.4375 207.375,126.7031 Q207.6094,126.9531 207.6094,127.5625 L207.6094,129.0156 Q207.6094,129.625 207.375,129.8906 Q207.1406,130.1563 206.7656,130.1563 Q206.4219,130.1563 206.2188,129.9531 Q206.0156,129.7656 205.9063,129.25 Q205.8594,128.8906 205.6719,128.7031 Q205.3438,128.3281 204.7344,128.1094 Q204.125,127.8906 203.5,127.8906 Q202.7344,127.8906 202.0938,128.2188 Q201.4688,128.5469 200.9688,129.2969 Q200.4844,130.0469 200.4844,131.0781 L200.4844,132.1719 Q200.4844,133.4063 201.375,134.2344 Q202.2656,135.0469 203.8594,135.0469 Q204.7969,135.0469 205.4531,134.7969 Q205.8438,134.6406 206.2656,134.2031 Q206.5313,133.9375 206.6719,133.8594 Q206.8281,133.7813 207.0313,133.7813 Q207.3594,133.7813 207.6094,134.0469 Q207.875,134.2969 207.875,134.6406 Q207.875,134.9844 207.5313,135.3906 Q207.0313,135.9688 206.2344,136.2969 Q205.1563,136.75 203.8594,136.75 Q202.3438,136.75 201.1406,136.125 Q200.1563,135.625 199.4688,134.5625 Q198.7813,133.4844 198.7813,132.2031 L198.7813,131.0469 Q198.7813,129.7188 199.3906,128.5781 Q200.0156,127.4219 201.1094,126.8125 Q202.2031,126.1875 203.4375,126.1875 Q204.1719,126.1875 204.8125,126.3594 Q205.4688,126.5156 206.0156,126.875 Z " fill="#000000"/><text fill="#000000" font-family="sans-serif" font-size="14" lengthAdjust="spacing" textLength="130" x="223.75" y="136.7285">CustomAuthProvider</text><line style="stroke:#181818;stroke-width:0.5;" x1="8" x2="537" y1="147" y2="147"/><line style="stroke:#181818;stroke-width:0.5;" x1="8" x2="537" y1="155" y2="155"/><ellipse cx="18" cy="169.3047" fill="#84BE84" rx="3" ry="3" style="stroke:#038048;stroke-width:1.0;"/><text fill="#000000" font-family="sans-serif" font-size="14" lengthAdjust="spacing" textLength="298" x="27" y="173.5332">CustomAuthProvider(authService:IAuthService)</text><ellipse cx="18" cy="186.9141" fill="#84BE84" rx="3" ry="3" style="stroke:#038048;stroke-width:1.0;"/><text fill="#000000" font-family="sans-serif" font-size="14" lengthAdjust="spacing" textLength="505" x="27" y="191.1426">«override» «async» GetAuthenticationStateAsync() : Task&lt;AuthenticationState&gt;</text></g><!--MD5=[4a331d4d63cba0de9a6f7b023774413d]
class AuthenticationStateProvider--><g id="elem_AuthenticationStateProvider"><rect fill="#F1F1F1" height="48" id="AuthenticationStateProvider" rx="2.5" ry="2.5" style="stroke:#181818;stroke-width:0.5;" width="208" x="168.5" y="7"/><ellipse cx="183.5" cy="23" fill="#ADD1B2" rx="11" ry="11" style="stroke:#181818;stroke-width:1.0;"/><path d="M186.2656,18.875 Q186.4219,18.6563 186.6094,18.5469 Q186.7969,18.4375 187.0156,18.4375 Q187.3906,18.4375 187.625,18.7031 Q187.8594,18.9531 187.8594,19.5625 L187.8594,21.0156 Q187.8594,21.625 187.625,21.8906 Q187.3906,22.1563 187.0156,22.1563 Q186.6719,22.1563 186.4688,21.9531 Q186.2656,21.7656 186.1563,21.25 Q186.1094,20.8906 185.9219,20.7031 Q185.5938,20.3281 184.9844,20.1094 Q184.375,19.8906 183.75,19.8906 Q182.9844,19.8906 182.3438,20.2188 Q181.7188,20.5469 181.2188,21.2969 Q180.7344,22.0469 180.7344,23.0781 L180.7344,24.1719 Q180.7344,25.4063 181.625,26.2344 Q182.5156,27.0469 184.1094,27.0469 Q185.0469,27.0469 185.7031,26.7969 Q186.0938,26.6406 186.5156,26.2031 Q186.7813,25.9375 186.9219,25.8594 Q187.0781,25.7813 187.2813,25.7813 Q187.6094,25.7813 187.8594,26.0469 Q188.125,26.2969 188.125,26.6406 Q188.125,26.9844 187.7813,27.3906 Q187.2813,27.9688 186.4844,28.2969 Q185.4063,28.75 184.1094,28.75 Q182.5938,28.75 181.3906,28.125 Q180.4063,27.625 179.7188,26.5625 Q179.0313,25.4844 179.0313,24.2031 L179.0313,23.0469 Q179.0313,21.7188 179.6406,20.5781 Q180.2656,19.4219 181.3594,18.8125 Q182.4531,18.1875 183.6875,18.1875 Q184.4219,18.1875 185.0625,18.3594 Q185.7188,18.5156 186.2656,18.875 Z " fill="#000000"/><text fill="#000000" font-family="sans-serif" font-size="14" lengthAdjust="spacing" textLength="176" x="197.5" y="28.7285">AuthenticationStateProvider</text><line style="stroke:#181818;stroke-width:0.5;" x1="169.5" x2="375.5" y1="39" y2="39"/><line style="stroke:#181818;stroke-width:0.5;" x1="169.5" x2="375.5" y1="47" y2="47"/></g><!--MD5=[cddf116af41190a7896d953d91970a1e]
reverse link AuthenticationStateProvider to CustomAuthProvider--><g id="link_AuthenticationStateProvider_CustomAuthProvider"><path codeLine="5" d="M272.5,75.31 C272.5,88.16 272.5,102.19 272.5,114.87 " fill="none" id="AuthenticationStateProvider-backto-CustomAuthProvider" style="stroke:#181818;stroke-width:1.0;"/><polygon fill="none" points="265.5,75.23,272.5,55.23,279.5,75.23,265.5,75.23" style="stroke:#181818;stroke-width:1.0;"/></g><!--MD5=[1c8efa1729f270e10ab7867826daa8e6]
@startuml
class CustomAuthProvider {
    + CustomAuthProvider(authService:IAuthService)
    + <<override>> <<async>> GetAuthenticationStateAsync() : Task<AuthenticationState>
}
AuthenticationStateProvider <|- - CustomAuthProvider
@enduml

PlantUML version 1.2022.7(Mon Aug 22 19:01:30 CEST 2022)
(GPL source distribution)
Java Runtime: OpenJDK Runtime Environment
JVM: OpenJDK 64-Bit Server VM
Default Encoding: Cp1252
Language: en
Country: US
--></g></svg>